<?xml version="1.0" encoding="UTF-8" standalone="no"?>
<!DOCTYPE svg PUBLIC "-//W3C//DTD SVG 1.1//EN" "http://www.w3.org/Graphics/SVG/1.1/DTD/svg11.dtd">
<!-- Created with Vectornator (http://vectornator.io/) -->
<svg height="100%" stroke-miterlimit="10" style="fill-rule:nonzero;clip-rule:evenodd;stroke-linecap:round;stroke-linejoin:round;" version="1.1" viewBox="0 0 1024 1024" width="100%" xml:space="preserve" xmlns="http://www.w3.org/2000/svg" xmlns:vectornator="http://vectornator.io" xmlns:xlink="http://www.w3.org/1999/xlink">
<defs/>
<g id="Capa-1" vectornator:layerName="Capa 1">
<path d="M236 133.5C231.333 135.167 226.667 138.167 222 142.5C217.333 146.833 213.667 152.167 211 158.5C208.333 164.833 207 171.333 207 178C207 184.667 205.833 188.833 203.5 190.5C201.167 192.167 199.667 193.833 199 195.5C198.333 197.167 198 199.5 198 202.5C198 205.5 198.5 208.333 199.5 211C200.5 213.667 202 216 204 218C206 220 207.833 221.167 209.5 221.5C211.167 221.833 213.5 225.167 216.5 231.5C219.5 237.833 220.333 241.667 219 243C217.667 244.333 211.667 247.667 201 253C190.333 258.333 182 264 176 270C170 276 165 282.5 161 289.5C157 296.5 154.333 302.167 153 306.5C151.667 310.833 150.667 315.5 150 320.5C149.333 325.5 149.167 331.167 149.5 337.5C149.833 343.833 151.167 348.333 153.5 351C155.833 353.667 160.333 355.167 167 355.5C173.667 355.833 205.333 355.833 262 355.5C318.667 355.167 348.5 353.167 351.5 349.5C354.5 345.833 356 341.167 356 335.5C356 329.833 355.5 324 354.5 318C353.5 312 351.5 305.333 348.5 298C345.5 290.667 342.167 284.333 338.5 279C334.833 273.667 331.333 269.5 328 266.5C324.667 263.5 315.833 258.333 301.5 251C287.167 243.667 280 239.5 280 238.5C280 237.5 280.833 236.5 282.5 235.5C284.167 234.5 285.833 232.5 287.5 229.5C289.167 226.5 292.167 223.667 296.5 221C300.833 218.333 303.833 215.333 305.5 212C307.167 208.667 308 205.167 308 201.5C308 197.833 306.5 194.667 303.5 192C300.5 189.333 299.167 184.833 299.5 178.5C299.833 172.167 299.5 167.333 298.5 164C297.5 160.667 295.667 156.833 293 152.5C290.333 148.167 287 144.333 283 141C279 137.667 274.333 135.167 269 133.5C263.667 131.833 258 131 252 131C246 131 240.667 131.833 236 133.5ZM731.5 134C725.833 136 720.167 139.5 714.5 144.5C708.833 149.5 704.833 154.333 702.5 159C700.167 163.667 698 170.833 696 180.5C694 190.167 691.833 198.333 689.5 205C687.167 211.667 683.667 217 679 221C674.333 225 672 228.167 672 230.5C672 232.833 672.833 235 674.5 237C676.167 239 682.833 240.333 694.5 241C706.167 241.667 712 242.333 712 243C712 243.667 707 246.333 697 251C687 255.667 678.333 261.833 671 269.5C663.667 277.167 658.5 284.167 655.5 290.5C652.5 296.833 650.333 302.5 649 307.5C647.667 312.5 646.667 317.667 646 323C645.333 328.333 645.333 333.5 646 338.5C646.667 343.5 648.167 347 650.5 349C652.833 351 660.5 352.333 673.5 353C686.5 353.667 712.5 354 751.5 354C790.5 354 815 353.667 825 353C835 352.333 841.333 350.667 844 348C846.667 345.333 848.167 342.167 848.5 338.5C848.833 334.833 848.167 327.667 846.5 317C844.833 306.333 842.667 298 840 292C837.333 286 834.833 281.333 832.5 278C830.167 274.667 826.667 270.833 822 266.5C817.333 262.167 809.333 257.333 798 252C786.667 246.667 781 243.667 781 243C781 242.333 787.333 241.667 800 241C812.667 240.333 819.833 239.167 821.5 237.5C823.167 235.833 824 233.5 824 230.5C824 227.5 821.833 224.333 817.5 221C813.167 217.667 809 207.167 805 189.5C801 171.833 797.5 160.5 794.5 155.5C791.5 150.5 787.667 146.167 783 142.5C778.333 138.833 773.167 136 767.5 134C761.833 132 755.833 131 749.5 131C743.167 131 737.167 132 731.5 134ZM255.5 149.5C259.167 149.833 262.5 150.667 265.5 152C268.5 153.333 271.5 155.333 274.5 158C277.5 160.667 279.5 163 280.5 165C281 166 281.5 167 282 168C279.667 166.833 277.333 165.667 275 164.5C270.333 162.167 266.667 162 264 164C261.333 166 258.5 167.5 255.5 168.5C252.5 169.5 248 170.167 242 170.5C236 170.833 231.667 170.667 229 170C227.667 169.667 226.333 169.333 225 169C225.333 168 225.667 167 226 166C226.667 164 228.167 161.667 230.5 159C232.833 156.333 236.667 154 242 152C247.333 150 251.833 149.167 255.5 149.5ZM749.5 149C754.5 149 759.167 150 763.5 152C767.833 154 771.5 156.5 774.5 159.5C777.5 162.5 779.5 166 780.5 170C781 172 781.5 174 782 176C779 175.333 776 174.667 773 174C767 172.667 761.667 169.667 757 165C752.333 160.333 749 158.167 747 158.5C745 158.833 741.667 161.333 737 166C732.333 170.667 728 173.333 724 174C722 174.333 720 174.667 718 175C719 172.5 720 170 721 167.5C723 162.5 725.333 158.833 728 156.5C730.667 154.167 733.667 152.333 737 151C740.333 149.667 744.5 149 749.5 149ZM480.5 157.5C474.167 159.167 468.333 161.333 463 164C457.667 166.667 452.167 170.5 446.5 175.5C440.833 180.5 436.167 186 432.5 192C428.833 198 426.167 204.667 424.5 212C422.833 219.333 422.167 226.333 422.5 233C422.833 239.667 422 243.333 420 244C418 244.667 415.833 246.333 413.5 249C411.167 251.667 409.667 256.333 409 263C408.333 269.667 408.833 275.167 410.5 279.5C412.167 283.833 413.833 287 415.5 289C417.167 291 419.167 292.833 421.5 294.5C423.833 296.167 427 297.333 431 298C435 298.667 437.667 301.667 439 307C440.333 312.333 442 316.667 444 320C446 323.333 448.167 326 450.5 328C452.833 330 454 331.5 454 332.5C454 333.5 452.333 335.833 449 339.5C445.667 343.167 439.167 347.667 429.5 353C419.833 358.333 410.5 364.333 401.5 371C392.5 377.667 383.333 386.333 374 397C364.667 407.667 357.833 417.5 353.5 426.5C349.167 435.5 346 443.5 344 450.5C342 457.5 340.5 465.333 339.5 474C338.5 482.667 338.167 493.5 338.5 506.5C338.833 519.5 340 527.167 342 529.5C344 531.833 346 533.333 348 534C350 534.667 401.833 534.833 503.5 534.5C605.167 534.167 657 533.167 659 531.5C661 529.833 662.333 528.167 663 526.5C663.667 524.833 663.833 516.167 663.5 500.5C663.167 484.833 662 471.333 660 460C658 448.667 655.5 439.333 652.5 432C649.5 424.667 645.5 417.167 640.5 409.5C635.5 401.833 630.167 395 624.5 389C618.833 383 604.667 372.333 582 357C559.333 341.667 548.167 333.167 548.5 331.5C548.833 329.833 550.667 327.167 554 323.5C557.333 319.833 560 315.167 562 309.5C564 303.833 567.667 299.833 573 297.5C578.333 295.167 582.167 292.833 584.5 290.5C586.833 288.167 589.167 284.833 591.5 280.5C593.833 276.167 595.167 272.333 595.5 269C595.833 265.667 595.5 262.333 594.5 259C593.5 255.667 591.667 252.5 589 249.5C586.333 246.5 584 244.667 582 244C580 243.333 579.167 238.667 579.5 230C579.833 221.333 579.333 214.333 578 209C576.667 203.667 573.333 197 568 189C562.667 181 557.333 175 552 171C546.667 167 540.167 163.5 532.5 160.5C524.833 157.5 515.833 155.833 505.5 155.5C495.167 155.167 486.833 155.833 480.5 157.5ZM507 176C515 176.667 522.333 178.833 529 182.5C535.667 186.167 541.5 190.833 546.5 196.5C551.5 202.167 554.833 208.333 556.5 215C557.333 218.333 558.167 221.667 559 225C557.5 223.833 556 222.667 554.5 221.5C551.5 219.167 548.5 215.667 545.5 211C542.5 206.333 539.833 203 537.5 201C535.167 199 532.333 198.167 529 198.5C525.667 198.833 521.667 201.667 517 207C512.333 212.333 507.833 216 503.5 218C499.167 220 493 221.667 485 223C477 224.333 468.167 224.833 458.5 224.5C453.667 224.333 448.833 224.167 444 224C445.333 220.167 446.667 216.333 448 212.5C450.667 204.833 453.833 199 457.5 195C461.167 191 465.833 187.333 471.5 184C477.167 180.667 482.5 178.333 487.5 177C492.5 175.667 499 175.333 507 176ZM270 178C270.667 178 271.5 179.333 272.5 182C273.5 184.667 275 187.167 277 189.5C279 191.833 281.333 193.667 284 195C286.667 196.333 287.833 197.667 287.5 199C287.167 200.333 285.667 202.5 283 205.5C280.333 208.5 278 212 276 216C274 220 271.5 223.333 268.5 226C265.5 228.667 262.667 230.5 260 231.5C257.333 232.5 254.333 233 251 233C247.667 233 244.5 232.333 241.5 231C238.5 229.667 235.5 227.167 232.5 223.5C229.5 219.833 226.333 214.667 223 208C219.667 201.333 219.5 196.333 222.5 193C225.5 189.667 232 187.667 242 187C252 186.333 258.667 185.333 262 184C265.333 182.667 267.333 181.333 268 180C268.667 178.667 269.333 178 270 178ZM746 182C748.333 183.5 750.667 185 753 186.5C757.667 189.5 763.5 191.5 770.5 192.5C774 193 777.5 193.5 781 194C780.5 196.333 780 198.667 779.5 201C778.5 205.667 776.5 210.5 773.5 215.5C770.5 220.5 766.167 224.5 760.5 227.5C754.833 230.5 751 232 749 232C747 232 744.167 231.167 740.5 229.5C736.833 227.833 733.667 225.667 731 223C728.333 220.333 726 217.167 724 213.5C722 209.833 720.5 206 719.5 202C718.5 198 718 195.5 718 194.5C718 194 718 193.5 718 193C719.5 193 721 193 722.5 193C725.5 193 729.667 192 735 190C740.333 188 743.5 186.167 744.5 184.5C745 183.667 745.5 182.833 746 182ZM704 212C705 214.333 706 216.667 707 219C708 221.333 709 223.667 710 226C708.5 225.667 707 225.333 705.5 225C704 224.667 702.5 224.333 701 224C701.5 222 702 220 702.5 218C703 216 703.5 214 704 212ZM531.5 225.5C532.5 225.833 534.667 228.667 538 234C541.333 239.333 545 243.667 549 247C553 250.333 555.333 253.167 556 255.5C556.667 257.833 559.833 259.5 565.5 260.5C571.167 261.5 573.833 263.333 573.5 266C573.167 268.667 572.167 271.167 570.5 273.5C568.833 275.833 565.5 277.333 560.5 278C555.5 278.667 552.5 279.5 551.5 280.5C550.5 281.5 547.833 287 543.5 297C539.167 307 534.667 314.167 530 318.5C525.333 322.833 520.167 326 514.5 328C508.833 330 502.667 330.5 496 329.5C489.333 328.5 484 326.833 480 324.5C476 322.167 472.667 319.5 470 316.5C467.333 313.5 463.667 306.667 459 296C454.333 285.333 449.333 279.667 444 279C438.667 278.333 435 276.667 433 274C431 271.333 429.833 268.667 429.5 266C429.167 263.333 431.833 261.5 437.5 260.5C443.167 259.5 447 257.167 449 253.5C451 249.833 456.833 247.667 466.5 247C476.167 246.333 485.667 245 495 243C504.333 241 511.5 238.667 516.5 236C521.5 233.333 525 230.833 527 228.5C529 226.167 530.5 225.167 531.5 225.5ZM732 249C733.667 249.5 735.333 250 737 250.5C740.333 251.5 745.5 251.667 752.5 251C759.5 250.333 763.667 250.667 765 252C766.333 253.333 766.667 256.167 766 260.5C765.333 264.833 762.333 272.5 757 283.5C754.333 289 751.667 294.5 749 300C748.5 299.667 748 299.333 747.5 299C746.5 298.333 745.833 296.833 745.5 294.5C745.167 292.167 742.5 285.833 737.5 275.5C732.5 265.167 730.333 258.167 731 254.5C731.333 252.667 731.667 250.833 732 249ZM268 253C270 255 271.167 256.833 271.5 258.5C271.833 260.167 270.167 265.5 266.5 274.5C262.833 283.5 259.333 290.667 256 296C254.333 298.667 252.667 301.333 251 304C248 297.5 245 291 242 284.5C236 271.5 232.667 263.167 232 259.5C231.333 255.833 231.333 253.5 232 252.5C232.667 251.5 237.333 251.333 246 252C254.667 252.667 260 252.5 262 251.5C264 250.5 266 251 268 253ZM709 267.5C710.333 267.833 716.333 278.667 727 300C732.333 310.667 737.667 321.333 743 332C736.5 332.167 730 332.333 723.5 332.5C710.5 332.833 703.833 329.5 703.5 322.5C703.167 315.5 702.5 311.5 701.5 310.5C700.5 309.5 698.667 308.833 696 308.5C693.333 308.167 691.167 308.167 689.5 308.5C687.833 308.833 686.5 309.833 685.5 311.5C684.5 313.167 683.667 317.167 683 323.5C682.333 329.833 679.667 333 675 333C672.667 333 670.333 333 668 333C668.667 328.333 669.333 323.667 670 319C671.333 309.667 673.333 302.167 676 296.5C678.667 290.833 682.5 285.667 687.5 281C692.5 276.333 697 272.833 701 270.5C705 268.167 707.667 267.167 709 267.5ZM213.5 273.5C215.833 275.833 221.333 286.333 230 305C234.333 314.333 238.667 323.667 243 333C236.667 333.167 230.333 333.333 224 333.5C211.333 333.833 204.833 331.167 204.5 325.5C204.167 319.833 203.5 316.5 202.5 315.5C201.5 314.5 199.167 314 195.5 314C191.833 314 189.167 315 187.5 317C185.833 319 184.833 322.333 184.5 327C184.167 331.667 181.833 334.167 177.5 334.5C175.333 334.667 173.167 334.833 171 335C171.5 331 172 327 172.5 323C173.5 315 175.5 307.833 178.5 301.5C181.5 295.167 185.167 289.667 189.5 285C193.833 280.333 198.333 276.667 203 274C207.667 271.333 211.167 271.167 213.5 273.5ZM292 270C295.5 272 299 274 302.5 276C309.5 280 314.833 284.167 318.5 288.5C322.167 292.833 325.333 298.167 328 304.5C330.667 310.833 332.333 317.5 333 324.5C333.333 328 333.667 331.5 334 335C331.5 335 329 335 326.5 335C321.5 335 318.833 332.5 318.5 327.5C318.167 322.5 317.5 319.333 316.5 318C315.5 316.667 314 315.667 312 315C310 314.333 307.333 314.333 304 315C300.667 315.667 298.667 319 298 325C297.333 331 291 334 279 334C273 334 267 334 261 334C261.667 331.667 262.333 329.333 263 327C264.333 322.333 269.5 311.667 278.5 295C283 286.667 287.5 278.333 292 270ZM789.5 270.5C791.833 270.833 794.5 272 797.5 274C800.5 276 804.167 279.333 808.5 284C812.833 288.667 816.5 294.667 819.5 302C822.5 309.333 824.167 316.333 824.5 323C824.667 326.333 824.833 329.667 825 333C823.167 333 821.333 333 819.5 333C815.833 333 813.667 329.833 813 323.5C812.333 317.167 811 313.167 809 311.5C807 309.833 804 309.333 800 310C796 310.667 793.833 314.667 793.5 322C793.167 329.333 786.5 332.833 773.5 332.5C767 332.333 760.5 332.167 754 332C759.333 321.667 764.667 311.333 770 301C780.667 280.333 787.167 270.167 789.5 270.5ZM471 345C473.667 346 476.333 347 479 348C484.333 350 490.333 351.167 497 351.5C503.667 351.833 511.333 350.833 520 348.5C528.667 346.167 534.667 347.167 538 351.5C541.333 355.833 544.167 358.667 546.5 360C548.833 361.333 544.833 378.833 534.5 412.5C529.333 429.333 524.167 446.167 519 463C518.333 459.833 517.667 456.667 517 453.5C515.667 447.167 514.5 436.667 513.5 422C512.5 407.333 514.167 398 518.5 394C522.833 390 524.833 387 524.5 385C524.167 383 522.167 379.5 518.5 374.5C514.833 369.5 512 366.667 510 366C508 365.333 504.333 365.167 499 365.5C493.667 365.833 489.667 367.5 487 370.5C484.333 373.5 482.333 376.5 481 379.5C479.667 382.5 479 385 479 387C479 389 480.833 392.167 484.5 396.5C488.167 400.833 488.667 412 486 430C484.667 439 483.333 448 482 457C477.5 442 473 427 468.5 412C459.5 382 455 366.333 455 365C455 363.667 457.5 360.667 462.5 356C467.5 351.333 470.167 348.333 470.5 347C470.667 346.333 470.833 345.667 471 345ZM430.5 381.5C431.5 381.833 433 384.833 435 390.5C437 396.167 439.5 404.667 442.5 416C445.5 427.333 451.5 446.167 460.5 472.5C465 485.667 469.5 498.833 474 512C455.5 512.167 437 512.333 418.5 512.5C400 512.667 381.5 512.833 363 513C363.333 506 363.667 499 364 492C364.667 478 367.167 464.333 371.5 451C375.833 437.667 382 425.833 390 415.5C398 405.167 406.5 396.833 415.5 390.5C424.5 384.167 429.5 381.167 430.5 381.5ZM571 381C572.167 381.333 573.333 381.667 574.5 382C576.833 382.667 581.333 385.333 588 390C594.667 394.667 600.5 399.667 605.5 405C610.5 410.333 614.5 415.333 617.5 420C620.5 424.667 623.5 430.167 626.5 436.5C629.5 442.833 632 449.667 634 457C636 464.333 637.5 475.5 638.5 490.5C639 498 639.5 505.5 640 513C621.833 513 603.667 513 585.5 513C567.333 513 549.167 513 531 513C531 512.167 531 511.333 531 510.5C531 508.833 535 496.5 543 473.5C551 450.5 557.667 429.333 563 410C565.667 400.333 568.333 390.667 571 381ZM738 409C731.333 411.667 725.5 415.167 720.5 419.5C715.5 423.833 711.667 429.167 709 435.5C706.333 441.833 704.833 449 704.5 457C704.167 465 703.167 469.167 701.5 469.5C699.833 469.833 698.167 471.167 696.5 473.5C694.833 475.833 694 479.167 694 483.5C694 487.833 694.5 491 695.5 493C696.5 495 698.5 497.667 701.5 501C704.5 504.333 707.5 506.667 710.5 508C713.5 509.333 715.333 511.5 716 514.5C716.667 517.5 718.5 521.333 721.5 526C724.5 530.667 723.167 535 717.5 539C711.833 543 704.5 547.333 695.5 552C686.5 556.667 677.167 563.667 667.5 573C657.833 582.333 651.333 590.167 648 596.5C644.667 602.833 641.833 609.833 639.5 617.5C637.167 625.167 635.5 633.833 634.5 643.5C633.5 653.167 633.167 661.667 633.5 669C633.833 676.333 635.667 681.667 639 685C642.333 688.333 682.833 689.833 760.5 689.5C838.167 689.167 878.167 687.333 880.5 684C882.833 680.667 884 674 884 664C884 654 883.5 644.333 882.5 635C881.5 625.667 879.333 616.333 876 607C872.667 597.667 869 590.167 865 584.5C861 578.833 857 574.167 853 570.5C849 566.833 843.167 562.5 835.5 557.5C827.833 552.5 821.333 548.833 816 546.5C810.667 544.167 805.833 541.333 801.5 538C799.333 536.333 797.167 534.667 795 533C796.167 531.5 797.333 530 798.5 528.5C800.833 525.5 802.667 521.833 804 517.5C805.333 513.167 808.167 509.833 812.5 507.5C816.833 505.167 820.333 501.5 823 496.5C825.667 491.5 826.833 486.667 826.5 482C826.167 477.333 825.333 474.333 824 473C822.667 471.667 821.167 470.833 819.5 470.5C817.833 470.167 817 467 817 461C817 455 816.333 449.333 815 444C813.667 438.667 811.167 433.333 807.5 428C803.833 422.667 799.167 418.167 793.5 414.5C787.833 410.833 782.667 408.333 778 407C773.333 405.667 767.167 405 759.5 405C751.833 405 744.667 406.333 738 409ZM220.5 411.5C212.167 415.167 206.167 418.667 202.5 422C198.833 425.333 196.167 428.333 194.5 431C192.833 433.667 191.167 437.667 189.5 443C187.833 448.333 187.167 454 187.5 460C187.667 463 187.833 466 188 469C187.333 469 186.667 469 186 469C184.667 469 182.833 469.833 180.5 471.5C178.167 473.167 176.667 476.333 176 481C175.333 485.667 176 490 178 494C180 498 182.5 501.333 185.5 504C188.5 506.667 191.333 508.5 194 509.5C196.667 510.5 198.333 512.333 199 515C199.667 517.667 201.5 521.333 204.5 526C207.5 530.667 206.667 535 202 539C197.333 543 189.833 547.833 179.5 553.5C169.167 559.167 159.667 566.667 151 576C142.333 585.333 136.667 592.667 134 598C131.333 603.333 128.833 610.333 126.5 619C124.167 627.667 122.833 639.833 122.5 655.5C122.167 671.167 123.333 680.667 126 684C128.667 687.333 130.833 689.167 132.5 689.5C134.167 689.833 172.667 689.833 248 689.5C323.333 689.167 361.667 688.5 363 687.5C364.333 686.5 365.5 684.833 366.5 682.5C367.5 680.167 368 673.333 368 662C368 650.667 367 639.333 365 628C363 616.667 360.5 607.833 357.5 601.5C354.5 595.167 349.667 587.833 343 579.5C336.333 571.167 329.5 564.667 322.5 560C315.5 555.333 308.5 551.333 301.5 548C294.5 544.667 289 541.333 285 538C281 534.667 280.333 530.5 283 525.5C285.667 520.5 287.167 516.667 287.5 514C287.833 511.333 289.667 509.333 293 508C296.333 506.667 299.333 504.5 302 501.5C304.667 498.5 306.5 495.667 307.5 493C308.5 490.333 308.833 486.667 308.5 482C308.167 477.333 307.333 474.167 306 472.5C304.667 470.833 303.167 469.833 301.5 469.5C299.833 469.167 298.667 463.833 298 453.5C297.333 443.167 295.833 436 293.5 432C291.167 428 287.333 423.667 282 419C276.667 414.333 271.167 411 265.5 409C259.833 407 253 406 245 406C237 406 228.833 407.833 220.5 411.5ZM760.5 424C765.5 424 770.167 424.833 774.5 426.5C778.833 428.167 783.167 431.333 787.5 436C791.833 440.667 794.667 445.333 796 450C796.667 452.333 797.333 454.667 798 457C797.5 457 797 457 796.5 457C795.5 457 793.833 454.833 791.5 450.5C789.167 446.167 787 443.667 785 443C783 442.333 781 442.167 779 442.5C777 442.833 774.833 444.333 772.5 447C770.167 449.667 767 451.833 763 453.5C759 455.167 753.667 456.167 747 456.5C740.333 456.833 734.5 456.667 729.5 456C727 455.667 724.5 455.333 722 455C722.5 453.167 723 451.333 723.5 449.5C724.5 445.833 725.833 442.667 727.5 440C729.167 437.333 731.333 435 734 433C736.667 431 740.5 429 745.5 427C750.5 425 755.5 424 760.5 424ZM245 425C250.333 425 255.167 425.833 259.5 427.5C263.833 429.167 267.667 431.833 271 435.5C274.333 439.167 276.833 443.667 278.5 449C280.167 454.333 280.667 457.167 280 457.5C279.333 457.833 278 457 276 455C274 453 272.333 450.833 271 448.5C269.667 446.167 267.167 444.833 263.5 444.5C259.833 444.167 256.5 445.5 253.5 448.5C250.5 451.5 247 453.833 243 455.5C239 457.167 232.667 458.167 224 458.5C215.333 458.833 210 458.667 208 458C206 457.333 205.5 455.167 206.5 451.5C207.5 447.833 209.833 443.833 213.5 439.5C217.167 435.167 222 431.667 228 429C234 426.333 239.667 425 245 425ZM781 459C782.833 462.167 784.667 465.333 786.5 468.5C790.167 474.833 793.333 478.667 796 480C798.667 481.333 801.667 482 805 482C806.667 482 808.333 482 810 482C810 483.167 810 484.333 810 485.5C810 487.833 809.5 489.5 808.5 490.5C807.5 491.5 805.333 492.167 802 492.5C798.667 492.833 796.333 493.667 795 495C793.667 496.333 791.833 499.833 789.5 505.5C787.167 511.167 784.5 515.667 781.5 519C778.5 522.333 774.833 524.833 770.5 526.5C766.167 528.167 762 528.833 758 528.5C754 528.167 749.833 526.333 745.5 523C741.167 519.667 737.167 514.167 733.5 506.5C729.833 498.833 727.167 494.5 725.5 493.5C723.833 492.5 721.833 492 719.5 492C717.167 492 715.333 490.667 714 488C713.333 486.667 712.667 485.333 712 484C713.833 483.5 715.667 483 717.5 482.5C721.167 481.5 724.333 479.667 727 477C729.667 474.333 734.333 473.167 741 473.5C747.667 473.833 753.333 473.5 758 472.5C762.667 471.5 766.667 470.167 770 468.5C773.333 466.833 776 464.833 778 462.5C779 461.333 780 460.167 781 459ZM263 461C265.167 464 267.333 467 269.5 470C273.833 476 278.5 479.667 283.5 481C288.5 482.333 291 484 291 486C291 488 290.333 489.5 289 490.5C287.667 491.5 285.5 492.167 282.5 492.5C279.5 492.833 277.5 493.5 276.5 494.5C275.5 495.5 273.833 499 271.5 505C269.167 511 266 516.167 262 520.5C258 524.833 253 527.333 247 528C241 528.667 236.667 528.5 234 527.5C231.333 526.5 228.333 524.167 225 520.5C221.667 516.833 218.5 511.667 215.5 505C212.5 498.333 208.333 494.333 203 493C197.667 491.667 194.667 490.5 194 489.5C193.333 488.5 193.167 487.167 193.5 485.5C193.833 483.833 196 483 200 483C204 483 206.667 482 208 480C209.333 478 214.167 476.833 222.5 476.5C230.833 476.167 237.5 475.333 242.5 474C247.5 472.667 251.5 471.167 254.5 469.5C257.5 467.833 259.667 466 261 464C261.667 463 262.333 462 263 461ZM504 467C510 467 513.167 467.333 513.5 468C513.833 468.667 513.667 471.833 513 477.5C512.333 483.167 511 488.833 509 494.5C507 500.167 505.5 503.5 504.5 504.5C503.5 505.5 502.5 506 501.5 506C500.5 506 499.5 505.167 498.5 503.5C497.5 501.833 495.5 496.667 492.5 488C489.5 479.333 488 474 488 472C488 470 489.167 468.667 491.5 468C493.833 467.333 498 467 504 467ZM736 542C739.333 543 742.667 544 746 545C752.667 547 757.667 548 761 548C764.333 548 768.667 547.167 774 545.5C779.333 543.833 783.833 545.333 787.5 550C791.167 554.667 791.333 563.5 788 576.5C784.667 589.5 781.5 600.167 778.5 608.5C777 612.667 775.5 616.833 774 621C773.667 620.5 773.333 620 773 619.5C772.333 618.5 771.833 614.333 771.5 607C771.167 599.667 770.5 593.833 769.5 589.5C768.5 585.167 769.167 581.5 771.5 578.5C773.833 575.5 774.833 572.333 774.5 569C774.167 565.667 772.833 563 770.5 561C768.167 559 764.333 558 759 558C753.667 558 750 559.667 748 563C746 566.333 745 569.333 745 572C745 574.667 746 577 748 579C750 581 750.167 588.5 748.5 601.5C747.667 608 746.833 614.5 746 621C743 611.167 740 601.333 737 591.5C731 571.833 728 561.167 728 559.5C728 557.833 728.833 556.167 730.5 554.5C732.167 552.833 733.5 550.333 734.5 547C735 545.333 735.5 543.667 736 542ZM230 545.5C236 547.167 241 548 245 548C249 548 253.5 547.167 258.5 545.5C263.5 543.833 267.833 545.333 271.5 550C275.167 554.667 276 561.333 274 570C272 578.667 269 588 265 598C261 608 258.833 614.333 258.5 617C258.333 618.333 258.167 619.667 258 621C257.667 620.667 257.333 620.333 257 620C256.333 619.333 255.5 612.833 254.5 600.5C253.5 588.167 254 581.167 256 579.5C258 577.833 259.167 576 259.5 574C259.833 572 259.5 569.5 258.5 566.5C257.5 563.5 256.167 561.333 254.5 560C252.833 558.667 249.333 558 244 558C238.667 558 235 559 233 561C231 563 229.667 565.833 229 569.5C228.333 573.167 229.167 576.167 231.5 578.5C233.833 580.833 235 582.833 235 584.5C235 586.167 234.167 592.5 232.5 603.5C231.667 609 230.833 614.5 230 620C226.833 610.167 223.667 600.333 220.5 590.5C214.167 570.833 212.667 558 216 552C219.333 546 224 543.833 230 545.5ZM486 565C481.333 566.333 477 568.167 473 570.5C469 572.833 465.333 575.667 462 579C458.667 582.333 455.667 586.167 453 590.5C450.333 594.833 447 605.333 443 622C439 638.667 436.5 648.167 435.5 650.5C434.5 652.833 432 655.667 428 659C424 662.333 422 665.333 422 668C422 670.667 423.5 673 426.5 675C429.5 677 437.167 678.333 449.5 679C455.667 679.333 461.833 679.667 468 680C466.5 681.333 465 682.667 463.5 684C460.5 686.667 456 689.167 450 691.5C444 693.833 438.5 696.5 433.5 699.5C428.5 702.5 423 707 417 713C411 719 405.833 727.167 401.5 737.5C397.167 747.833 394.5 759 393.5 771C392.5 783 393.833 790.833 397.5 794.5C401.167 798.167 406.333 800.167 413 800.5C419.667 800.833 445.5 801 490.5 801C535.5 801 565.167 800.333 579.5 799C593.833 797.667 602.167 795.667 604.5 793C606.833 790.333 608.167 787 608.5 783C608.833 779 608 771.167 606 759.5C604 747.833 601.833 739.333 599.5 734C597.167 728.667 593.167 722.667 587.5 716C581.833 709.333 573.667 703.167 563 697.5C552.333 691.833 545 687.167 541 683.5C539 681.667 537 679.833 535 678C541.167 678 547.333 678 553.5 678C565.833 678 573.167 677 575.5 675C577.833 673 578.833 670.5 578.5 667.5C578.167 664.5 575.833 661.333 571.5 658C567.167 654.667 563.333 643.667 560 625C556.667 606.333 553.333 594.333 550 589C546.667 583.667 542.833 579.167 538.5 575.5C534.167 571.833 528.833 568.833 522.5 566.5C516.167 564.167 509.667 563 503 563C496.333 563 490.667 563.667 486 565ZM707 570.5C708.333 571.5 714 588.167 724 620.5C729 636.667 734 652.833 739 669C725 668.833 711 668.667 697 668.5C683 668.333 669 668.167 655 668C655.5 662 656 656 656.5 650C657.5 638 659.5 627.667 662.5 619C665.5 610.333 669.833 602.167 675.5 594.5C681.167 586.833 687.5 580.667 694.5 576C701.5 571.333 705.667 569.5 707 570.5ZM191.5 572C193.167 573.333 198.667 588.333 208 617C217.333 645.667 222.167 661.5 222.5 664.5C222.667 666 222.833 667.5 223 669C209.667 669 196.333 669 183 669C169.667 669 156.333 669 143 669C143 664.833 143 660.667 143 656.5C143 648.167 144.333 638.333 147 627C149.667 615.667 153 606.833 157 600.5C161 594.167 167.333 587.5 176 580.5C184.667 573.5 189.833 570.667 191.5 572ZM301 571C303.667 571.667 306.667 573.167 310 575.5C313.333 577.833 317.167 581.333 321.5 586C325.833 590.667 329.5 595.667 332.5 601C335.5 606.333 338.167 612.833 340.5 620.5C342.833 628.167 344.333 638.167 345 650.5C345.333 656.667 345.667 662.833 346 669C335 668.833 324 668.667 313 668.5C291 668.167 277.667 668.333 273 669C270.667 669.333 268.333 669.667 266 670C271.167 653.333 276.333 636.667 281.5 620C291.833 586.667 298.333 570.333 301 571ZM814 570C816.333 571 818.667 572 821 573C825.667 575 830.333 578.167 835 582.5C839.667 586.833 844 592.5 848 599.5C852 606.5 855.167 614.333 857.5 623C859.833 631.667 861.167 641.333 861.5 652C861.667 657.333 861.833 662.667 862 668C848.833 668.167 835.667 668.333 822.5 668.5C809.333 668.667 796.167 668.833 783 669C788.167 652.5 793.333 636 798.5 619.5C803.667 603 808.833 586.5 814 570ZM505.5 581.5C510.5 581.833 515.167 583.167 519.5 585.5C523.833 587.833 527.167 590.333 529.5 593C531.833 595.667 533.833 599.5 535.5 604.5C536.333 607 537.167 609.5 538 612C534 611.5 530 611 526 610.5C518 609.5 512.667 607.5 510 604.5C507.333 601.5 504.667 599.5 502 598.5C499.333 597.5 495.5 599.167 490.5 603.5C485.5 607.833 480.167 610.5 474.5 611.5C471.667 612 468.833 612.5 466 613C466.333 611.167 466.667 609.333 467 607.5C467.667 603.833 469.5 600 472.5 596C475.5 592 480.5 588.5 487.5 585.5C494.5 582.5 500.5 581.167 505.5 581.5ZM506 621.5C510 624.5 515.5 626.667 522.5 628C526 628.667 529.5 629.333 533 630C531.833 633.5 530.667 637 529.5 640.5C527.167 647.5 524.333 652.667 521 656C517.667 659.333 514.5 661.667 511.5 663C508.5 664.333 505.5 665 502.5 665C499.5 665 496 664 492 662C488 660 484.833 657.5 482.5 654.5C480.167 651.5 477.667 647.167 475 641.5C472.333 635.833 471 632.5 471 631.5C471 630.5 472.667 629.833 476 629.5C479.333 629.167 483.167 628.167 487.5 626.5C491.833 624.833 495 622.833 497 620.5C499 618.167 502 618.5 506 621.5ZM764.5 631C766.167 631 767.167 632.5 767.5 635.5C767.833 638.5 767 642.667 765 648C763 653.333 761.5 656.167 760.5 656.5C759.5 656.833 757.833 654 755.5 648C753.167 642 752 638 752 636C752 634 753.667 632.667 757 632C760.333 631.333 762.833 631 764.5 631ZM243 634C246.333 634 248.333 634.333 249 635C249.667 635.667 249.833 638.167 249.5 642.5C249.167 646.833 248.333 650.167 247 652.5C245.667 654.833 244.5 656 243.5 656C242.5 656 241.333 654.167 240 650.5C238.667 646.833 237.667 643.5 237 640.5C236.333 637.5 236.333 635.667 237 635C237.667 634.333 239.667 634 243 634ZM453 645C455 648.333 457 651.667 459 655C461 658.333 463 661.667 465 665C462.833 664.833 460.667 664.667 458.5 664.5C454.167 664.167 452.167 660.833 452.5 654.5C452.667 651.333 452.833 648.167 453 645ZM546 650C546.333 652.167 546.667 654.333 547 656.5C547.333 658.667 547.667 660.833 548 663C546.5 663.167 545 663.333 543.5 663.5C542 663.667 540.5 663.833 539 664C540.167 661.667 541.333 659.333 542.5 657C543.667 654.667 544.833 652.333 546 650ZM493.5 684.5C498.5 685.5 503.167 685.667 507.5 685C511.833 684.333 515.333 686 518 690C520.667 694 521.667 697.833 521 701.5C520.333 705.167 517.167 712.833 511.5 724.5C508.667 730.333 505.833 736.167 503 742C501.167 739.167 499.333 736.333 497.5 733.5C493.833 727.833 490.167 720.833 486.5 712.5C482.833 704.167 481 699 481 697C481 695 481.833 692.167 483.5 688.5C485.167 684.833 488.5 683.5 493.5 684.5ZM459.5 707.5C460.5 707.833 463.667 712.5 469 721.5C474.333 730.5 479.167 739.667 483.5 749C487.833 758.333 491.5 765 494.5 769C497.5 773 500.167 775 502.5 775C504.833 775 506.667 774.333 508 773C509.333 771.667 515.167 760.5 525.5 739.5C535.833 718.5 541.5 707.833 542.5 707.5C543.5 707.167 545.333 707.667 548 709C550.667 710.333 555 713.5 561 718.5C567 723.5 571.5 728.5 574.5 733.5C577.5 738.5 580 744.667 582 752C584 759.333 585 765.5 585 770.5C585 773 585 775.5 585 778C582.833 778 580.667 778 578.5 778C574.167 778 571.5 774.5 570.5 767.5C569.5 760.5 568 756.167 566 754.5C564 752.833 561.5 752 558.5 752C555.5 752 553.333 752.667 552 754C550.667 755.333 550 760.333 550 769C550 773.333 550 777.667 550 782C539.667 781.667 529.333 781.333 519 781C498.333 780.333 481.667 780.333 469 781C462.667 781.333 456.333 781.667 450 782C450 778 450 774 450 770C450 762 449.167 757.333 447.5 756C445.833 754.667 444 753.833 442 753.5C440 753.167 437.833 754 435.5 756C433.167 758 431.667 762.333 431 769C430.333 775.667 427.5 779.167 422.5 779.5C420 779.667 417.5 779.833 415 780C415.5 775.667 416 771.333 416.5 767C417.5 758.333 419.333 750.667 422 744C424.667 737.333 428 731.667 432 727C436 722.333 441.333 717.833 448 713.5C454.667 709.167 458.5 707.167 459.5 707.5Z" fill="#000000" fill-rule="nonzero" opacity="1" stroke="none" vectornator:layerName="Curva 1"/>
</g>
</svg>
