<?xml version="1.0" encoding="UTF-8" standalone="no"?>
<!DOCTYPE svg PUBLIC "-//W3C//DTD SVG 1.1//EN" "http://www.w3.org/Graphics/SVG/1.1/DTD/svg11.dtd">
<!-- Created with Vectornator (http://vectornator.io/) -->
<svg height="100%" stroke-miterlimit="10" style="fill-rule:nonzero;clip-rule:evenodd;stroke-linecap:round;stroke-linejoin:round;" version="1.1" viewBox="0 0 1024 1024" width="100%" xml:space="preserve" xmlns="http://www.w3.org/2000/svg" xmlns:vectornator="http://vectornator.io" xmlns:xlink="http://www.w3.org/1999/xlink">
<defs/>
<g id="Capa-1" vectornator:layerName="Capa 1">
<path d="M509.5 197.5C469.833 197.833 449 199.167 447 201.5C445 203.833 444 208.5 444 215.5C444 219 444 222.5 444 226C438.833 226 433.667 226 428.5 226C418.167 226 411.833 226.833 409.5 228.5C407.167 230.167 405.667 231.667 405 233C404.333 234.333 404.167 262.667 404.5 318C404.667 345.667 404.833 373.333 405 401C407.667 400 410.333 399 413 398C418.333 396 421.333 394.167 422 392.5C422.667 390.833 423 365.833 423 317.5C423 293.333 423 269.167 423 245C453.167 245.167 483.333 245.333 513.5 245.5C543.667 245.667 573.833 245.833 604 246C604 271.167 604 296.333 604 321.5C604 346.667 604 371.833 604 397C607.167 395.167 610.333 393.333 613.5 391.5C619.833 387.833 623 361 623 311C623 261 621.833 234.5 619.5 231.5C617.167 228.5 610.667 226.833 600 226.5C589.333 226.167 584 222.167 584 214.5C584 206.833 583 202.167 581 200.5C579 198.833 576.5 197.833 573.5 197.5C570.5 197.167 549.167 197.167 509.5 197.5ZM659.5 244.5C655.167 246.167 651.333 248.667 648 252C644.667 255.333 642.167 259.167 640.5 263.5C638.833 267.833 638 272.167 638 276.5C638 280.833 638.333 284.333 639 287C639.667 289.667 641.5 293.333 644.5 298C647.5 302.667 651.833 306.333 657.5 309C663.167 311.667 668 313 672 313C676 313 680 312.333 684 311C688 309.667 692 307 696 303C700 299 702.833 294.833 704.5 290.5C706.167 286.167 707 281.5 707 276.5C707 271.5 706 266.833 704 262.5C702 258.167 699.667 254.667 697 252C694.333 249.333 690.5 247 685.5 245C680.5 243 676 242 672 242C668 242 663.833 242.833 659.5 244.5ZM345 245.5C340.333 247.167 336.167 249.5 332.5 252.5C328.833 255.5 326 259 324 263C322 267 320.833 270.667 320.5 274C320.167 277.333 320.833 281.833 322.5 287.5C324.167 293.167 326.667 298 330 302C333.333 306 336.667 308.833 340 310.5C343.333 312.167 347.667 313.167 353 313.5C358.333 313.833 363 313.333 367 312C371 310.667 374.333 308.833 377 306.5C379.667 304.167 382.167 300.833 384.5 296.5C386.833 292.167 388.333 287.667 389 283C389.667 278.333 389 273 387 267C385 261 382.667 256.5 380 253.5C377.333 250.5 374.667 248.333 372 247C369.333 245.667 365.333 244.667 360 244C354.667 243.333 349.667 243.833 345 245.5ZM363.5 269.5C369.833 274.5 372.333 279 371 283C369.667 287 367.333 290 364 292C360.667 294 358 295 356 295C354 295 351.667 294.333 349 293C346.333 291.667 343.667 288.833 341 284.5C338.333 280.167 339.833 275.333 345.5 270C351.167 264.667 357.167 264.5 363.5 269.5ZM671.5 262.5C672.5 262.833 674 264.5 676 267.5C678 270.5 680.833 272.833 684.5 274.5C688.167 276.167 689.667 278.333 689 281C688.333 283.667 686.333 286.333 683 289C679.667 291.667 676.333 293 673 293C669.667 293 667 292.5 665 291.5C663 290.5 660.833 288.5 658.5 285.5C656.167 282.5 655 280.167 655 278.5C655 276.833 657.5 273.667 662.5 269C667.5 264.333 670.5 262.167 671.5 262.5ZM444 267C442.667 268.333 442 273.667 442 283C442 292.333 442.5 297.5 443.5 298.5C444.5 299.5 449.667 300 459 300C468.333 300 473.333 299.667 474 299C474.667 298.333 475 293 475 283C475 273 474.667 267.667 474 267C473.333 266.333 468.5 265.833 459.5 265.5C450.5 265.167 445.333 265.667 444 267ZM499 267C498.333 267.667 498 272.833 498 282.5C498 292.167 498.667 297.667 500 299C501.333 300.333 506.333 300.833 515 300.5C523.667 300.167 528.333 299.667 529 299C529.667 298.333 530 293 530 283C530 273 529.667 267.667 529 267C528.333 266.333 523.333 266 514 266C504.667 266 499.667 266.333 499 267ZM554 267C553.333 267.667 553 273 553 283C553 293 553.5 298.5 554.5 299.5C555.5 300.5 560.667 300.833 570 300.5C579.333 300.167 584.167 294.667 584.5 284C584.833 273.333 584.667 267.667 584 267C583.333 266.333 578.333 266 569 266C559.667 266 554.667 266.333 554 267ZM266.5 322.5C262.167 323.5 257.833 325.5 253.5 328.5C249.167 331.5 245.833 335 243.5 339C241.167 343 239.667 347.333 239 352C238.333 356.667 238.5 361 239.5 365C240.5 369 242.667 373.333 246 378C249.333 382.667 253.833 386.333 259.5 389C265.167 391.667 270.167 393 274.5 393C278.833 393 282.833 392.333 286.5 391C290.167 389.667 293.667 387.5 297 384.5C300.333 381.5 303.167 377.667 305.5 373C307.833 368.333 309.167 363.5 309.5 358.5C309.833 353.5 308.333 347.667 305 341C301.667 334.333 297.833 329.667 293.5 327C289.167 324.333 284.667 322.667 280 322C275.333 321.333 270.833 321.5 266.5 322.5ZM641.5 323.5C637.833 325.167 636.167 327.833 636.5 331.5C636.833 335.167 638 337.167 640 337.5C642 337.833 644.333 337.5 647 336.5C649.667 335.5 652.667 336.667 656 340C659.333 343.333 662.667 345.5 666 346.5C669.333 347.5 673.333 347.5 678 346.5C682.667 345.5 687 343.167 691 339.5C695 335.833 698.667 333.167 702 331.5C703.667 330.667 705.333 329.833 707 329C706.167 328.167 705.333 327.333 704.5 326.5C702.833 324.833 699.333 323.5 694 322.5C688.667 321.5 685 322.167 683 324.5C681 326.833 678.167 328.333 674.5 329C670.833 329.667 667.5 328.5 664.5 325.5C661.5 322.5 657.833 321 653.5 321C649.167 321 645.167 321.833 641.5 323.5ZM733 325C728.333 327 724.333 329.833 721 333.5C717.667 337.167 715.333 340.833 714 344.5C712.667 348.167 712.333 353.667 713 361C713.667 368.333 715 373.833 717 377.5C719 381.167 722 384.5 726 387.5C730 390.5 733.667 392.5 737 393.5C740.333 394.5 746 394.667 754 394C762 393.333 767.333 392.167 770 390.5C772.667 388.833 775.833 385.5 779.5 380.5C783.167 375.5 785.333 371.833 786 369.5C786.667 367.167 786.667 362.167 786 354.5C785.333 346.833 784 341.333 782 338C780 334.667 776.833 331.5 772.5 328.5C768.167 325.5 765 323.667 763 323C761 322.333 756.667 322 750 322C743.333 322 737.667 323 733 325ZM443.5 324.5C442.5 325.5 442.167 331.167 442.5 341.5C442.833 351.833 443.5 357.5 444.5 358.5C445.5 359.5 450 360 458 360C466 360 470.667 359.667 472 359C473.333 358.333 474.167 352.5 474.5 341.5C474.833 330.5 474.667 324.667 474 324C473.333 323.333 468.333 323 459 323C449.667 323 444.5 323.5 443.5 324.5ZM499 324C498.333 324.667 498 330 498 340C498 350 498.333 355.5 499 356.5C499.667 357.5 504.833 358.167 514.5 358.5C519.333 358.667 524.167 358.833 529 359C529.167 353.333 529.333 347.667 529.5 342C529.833 330.667 529.5 324.667 528.5 324C527.5 323.333 522.5 323 513.5 323C504.5 323 499.667 323.333 499 324ZM554 324.5C553.333 325.5 553 330.667 553 340C553 349.333 553.333 354.667 554 356C554.667 357.333 559.5 358.333 568.5 359C577.5 359.667 582.5 359.5 583.5 358.5C584.5 357.5 585 351.667 585 341C585 330.333 584.667 324.667 584 324C583.333 323.333 578.333 323 569 323C559.667 323 554.667 323.5 554 324.5ZM282.5 347.5C288.833 352.5 291.667 356.667 291 360C290.333 363.333 288.5 366.167 285.5 368.5C282.5 370.833 278.667 371.833 274 371.5C269.333 371.167 265.167 369.167 261.5 365.5C257.833 361.833 256 359.167 256 357.5C256 355.833 258.833 352.5 264.5 347.5C270.167 342.5 276.167 342.5 282.5 347.5ZM746 342C746.667 342 747.333 343 748 345C748.667 347 750.167 349.167 752.5 351.5C754.833 353.833 758.5 356 763.5 358C766 359 768.5 360 771 361C768.667 363.5 766.333 366 764 368.5C759.333 373.5 755 376.167 751 376.5C747 376.833 744 376.5 742 375.5C740 374.5 738.167 373.333 736.5 372C734.833 370.667 733.167 368.5 731.5 365.5C729.833 362.5 729 360.5 729 359.5C729 358.5 731.167 356.333 735.5 353C739.833 349.667 742.5 347 743.5 345C744.5 343 745.333 342 746 342ZM340.5 364.5C335.5 366.167 331 368.833 327 372.5C323 376.167 320 380.667 318 386C316 391.333 315 396.167 315 400.5C315 404.833 315.833 409.333 317.5 414C319.167 418.667 321 422.167 323 424.5C325 426.833 328.833 429.333 334.5 432C340.167 434.667 345.167 436.167 349.5 436.5C353.833 436.833 358.167 436.333 362.5 435C366.833 433.667 371.167 430.833 375.5 426.5C379.833 422.167 383 417.5 385 412.5C387 407.5 388 403.333 388 400C388 396.667 386.833 392 384.5 386C382.167 380 379.667 375.667 377 373C374.333 370.333 370.833 368 366.5 366C362.167 364 358 362.833 354 362.5C350 362.167 345.5 362.833 340.5 364.5ZM555 383C553.667 384.333 553.167 389.833 553.5 399.5C553.833 409.167 554.5 414.5 555.5 415.5C556.5 416.5 561.5 416.833 570.5 416.5C579.5 416.167 584.167 410.5 584.5 399.5C584.833 388.5 580.333 382.667 571 382C561.667 381.333 556.333 381.667 555 383ZM351.5 382C352.5 382 355.667 384.5 361 389.5C366.333 394.5 369 398.167 369 400.5C369 402.833 368.5 405 367.5 407C366.5 409 364.167 411.333 360.5 414C356.833 416.667 352.833 417.667 348.5 417C344.167 416.333 340.833 414.833 338.5 412.5C336.167 410.167 334.5 407.833 333.5 405.5C332.5 403.167 332 401.333 332 400C332 398.667 335 395.333 341 390C347 384.667 350.5 382 351.5 382ZM443 383.5C442.333 384.5 442.167 387.333 442.5 392C442.833 396.667 445.333 399.5 450 400.5C454.667 401.5 459.5 404.333 464.5 409C467 411.333 469.5 413.667 472 416C472.5 415.333 473 414.667 473.5 414C474.5 412.667 474.833 407.167 474.5 397.5C474.167 387.833 469 382.833 459 382.5C449 382.167 443.667 382.5 443 383.5ZM499 383C498.333 383.667 498.167 389 498.5 399C498.833 409 499.333 414.333 500 415C500.667 415.667 505.333 416.167 514 416.5C522.667 416.833 527.5 416.333 528.5 415C529.5 413.667 530 408.167 530 398.5C530 388.833 529.5 383.667 528.5 383C527.5 382.333 522.5 382 513.5 382C504.5 382 499.667 382.333 499 383ZM632 401C626.667 403 622.167 405.833 618.5 409.5C614.833 413.167 612 417.833 610 423.5C608 429.167 607 434.833 607 440.5C607 446.167 604.333 449.667 599 451C593.667 452.333 590.333 454.167 589 456.5C587.667 458.833 587.167 461.333 587.5 464C587.833 466.667 588.667 468.5 590 469.5C591.333 470.5 597.833 470.833 609.5 470.5C621.167 470.167 627.833 470.667 629.5 472C631.167 473.333 634 474.5 638 475.5C642 476.5 646.833 476.667 652.5 476C658.167 475.333 662.333 474 665 472C667.667 470 675 468.833 687 468.5C699 468.167 705.667 466.667 707 464C708.333 461.333 708.833 459 708.5 457C708.167 455 704.5 452.833 697.5 450.5C690.5 448.167 687 444.333 687 439C687 433.667 686 428.333 684 423C682 417.667 679.333 413.333 676 410C672.667 406.667 669.667 404.333 667 403C664.333 401.667 659.167 400.5 651.5 399.5C643.833 398.5 637.333 399 632 401ZM249 402C244.333 402.667 240.5 403.833 237.5 405.5C234.5 407.167 231.333 410 228 414C224.667 418 222.167 422.5 220.5 427.5C218.833 432.5 217.833 451.5 217.5 484.5C217.167 517.5 217.333 535.167 218 537.5C218.667 539.833 221.333 541.333 226 542C230.667 542.667 233 555.5 233 580.5C233 605.5 234.167 618.667 236.5 620C238.833 621.333 241.167 622 243.5 622C245.833 622 248 621.167 250 619.5C252 617.833 253.167 604.167 253.5 578.5C253.667 565.667 253.833 552.833 254 540C258.667 540 263.333 540 268 540C277.333 540 282.167 537.333 282.5 532C282.833 526.667 282.833 523.667 282.5 523C282.167 522.333 274.5 521.833 259.5 521.5C252 521.333 244.5 521.167 237 521C237.167 506.167 237.333 491.333 237.5 476.5C237.833 446.833 238.667 430.833 240 428.5C241.333 426.167 243.167 424.167 245.5 422.5C246.667 421.667 247.833 420.833 249 420C252 424.833 255 429.667 258 434.5C264 444.167 267.833 449.833 269.5 451.5C271.167 453.167 272.5 454 273.5 454C274.5 454 278.5 449 285.5 439C292.5 429 297 423 299 421C301 419 303 418.167 305 418.5C306 418.667 307 418.833 308 419C307 416.333 306 413.667 305 411C303 405.667 299.333 402.833 294 402.5C288.667 402.167 285.167 404 283.5 408C281.833 412 279.833 415 277.5 417C276.333 418 275.167 419 274 420C272.5 417.5 271 415 269.5 412.5C266.5 407.5 264.5 404.5 263.5 403.5C262.5 402.5 261 401.833 259 401.5C257 401.167 253.667 401.333 249 402ZM714 406C708.667 408 704.833 410 702.5 412C700.167 414 699.167 416.833 699.5 420.5C699.833 424.167 700.667 427 702 429C702.667 430 703.333 431 704 432C705.833 430.5 707.667 429 709.5 427.5C713.167 424.5 715.5 423 716.5 423C717.5 423 721.667 430.5 729 445.5C736.333 460.5 741.167 469.167 743.5 471.5C744.667 472.667 745.833 473.833 747 475C748.667 473.167 750.333 471.333 752 469.5C755.333 465.833 757.667 462.167 759 458.5C760.333 454.833 763.5 449.333 768.5 442C773.5 434.667 776.167 430.167 776.5 428.5C776.667 427.667 776.833 426.833 777 426C778.167 426.5 779.333 427 780.5 427.5C782.833 428.5 784.833 430.333 786.5 433C788.167 435.667 789.167 451.333 789.5 480C789.667 494.333 789.833 508.667 790 523C779.167 523.167 768.333 523.333 757.5 523.5C746.667 523.667 735.833 523.833 725 524C725 527.5 725 531 725 534.5C725 538 725 541.5 725 545C733 545 741 545 749 545C757 545 765 545 773 545C773.167 559.667 773.333 574.333 773.5 589C773.833 618.333 775 633.667 777 635C779 636.333 780.833 637 782.5 637C784.167 637 786.333 636 789 634C791.667 632 793 617.167 793 589.5C793 575.667 793 561.833 793 548C794.667 548 796.333 548 798 548C801.333 548 804.167 547.5 806.5 546.5C808.833 545.5 809.833 526.5 809.5 489.5C809.167 452.5 807.833 431.5 805.5 426.5C803.167 421.5 800.833 417.833 798.5 415.5C796.167 413.167 793.333 411.167 790 409.5C786.667 407.833 783.833 406.667 781.5 406C779.167 405.333 775.167 405.167 769.5 405.5C763.833 405.833 760.333 408.667 759 414C757.667 419.333 755.5 423.333 752.5 426C751 427.333 749.5 428.667 748 430C747 428.833 746 427.667 745 426.5C743 424.167 741.333 420.167 740 414.5C738.667 408.833 736.833 405.5 734.5 404.5C732.167 403.5 729.5 403 726.5 403C723.5 403 719.333 404 714 406ZM419 418.5C414.333 420.167 410.667 422.167 408 424.5C405.333 426.833 403 430.167 401 434.5C399 438.833 397.833 443.667 397.5 449C397.167 454.333 397.667 459.167 399 463.5C400.333 467.833 402.833 472.167 406.5 476.5C410.167 480.833 414.5 484 419.5 486C424.5 488 429.5 489 434.5 489C439.5 489 443.833 488.333 447.5 487C451.167 485.667 454.5 483.5 457.5 480.5C460.5 477.5 463.333 473.667 466 469C468.667 464.333 470.167 459.333 470.5 454C470.833 448.667 470 443.5 468 438.5C466 433.5 463.667 429.5 461 426.5C458.333 423.5 454.833 421 450.5 419C446.167 417 441 416 435 416C429 416 423.667 416.833 419 418.5ZM644 421C646 423.167 648 425.333 650 427.5C654 431.833 657.833 434.667 661.5 436C665.167 437.333 666.167 440.5 664.5 445.5C662.833 450.5 660.167 454 656.5 456C652.833 458 648.333 458.5 643 457.5C637.667 456.5 634 455 632 453C630 451 628.5 448.833 627.5 446.5C626.5 444.167 626 442.333 626 441C626 439.667 628 437.5 632 434.5C636 431.5 639 428.5 641 425.5C642 424 643 422.5 644 421ZM423 436C427.833 437.5 432.667 439 437.5 440.5C447.167 443.5 451.833 447.5 451.5 452.5C451.167 457.5 449.833 461.333 447.5 464C445.167 466.667 441.667 468.333 437 469C432.333 469.667 428.333 469.167 425 467.5C421.667 465.833 419.333 464.167 418 462.5C416.667 460.833 415.833 458.167 415.5 454.5C415.167 450.833 416.167 447.667 418.5 445C420.833 442.333 422.167 440.167 422.5 438.5C422.667 437.667 422.833 436.833 423 436ZM361.5 446C360.5 446.667 360.167 448.167 360.5 450.5C360.833 452.833 359.667 455.833 357 459.5C354.333 463.167 352.167 464.833 350.5 464.5C348.833 464.167 347.333 463.333 346 462C344.667 460.667 343.667 457.833 343 453.5C342.667 451.333 342.333 449.167 342 447C344.333 446.833 346.667 446.667 349 446.5C351.333 446.333 353.667 446.167 356 446C350.833 446 345.667 446 340.5 446C330.167 446 323.333 446.5 320 447.5C316.667 448.5 312.833 450.833 308.5 454.5C304.167 458.167 301 462.333 299 467C297 471.667 296.333 488.833 297 518.5C297.667 548.167 298.167 564.167 298.5 566.5C298.833 568.833 299.833 570.833 301.5 572.5C303.167 574.167 304.167 575.833 304.5 577.5C304.833 579.167 305.5 595.833 306.5 627.5C307.5 659.167 309.333 675.833 312 677.5C314.667 679.167 317.167 679.833 319.5 679.5C321.833 679.167 323.5 678.333 324.5 677C325.5 675.667 325.833 657.5 325.5 622.5C325.333 605 325.167 587.5 325 570C330.167 570 335.333 570 340.5 570C345.667 570 350.833 570 356 570C356 566.667 356 563.333 356 560C356 553.333 349.333 549.833 336 549.5C322.667 549.167 315.667 537.333 315 514C314.333 490.667 314.833 477.5 316.5 474.5C318.167 471.5 320.167 469.167 322.5 467.5C323.667 466.667 324.833 465.833 326 465C327 467 328 469 329 471C331 475 333.833 479.167 337.5 483.5C341.167 487.833 343.833 490.667 345.5 492C347.167 493.333 348.833 494 350.5 494C352.167 494 355.833 490.333 361.5 483C367.167 475.667 370.667 471.667 372 471C373.333 470.333 374.333 469.167 375 467.5C375.667 465.833 377.333 465.167 380 465.5C381.333 465.667 382.667 465.833 384 466C384 463.167 384 460.333 384 457.5C384 451.833 382.167 448.333 378.5 447C374.833 445.667 371.333 445 368 445C364.667 445 362.5 445.333 361.5 446ZM515.5 455C509.833 457.667 505.5 460.667 502.5 464C499.5 467.333 497 471.667 495 477C493 482.333 492 487.167 492 491.5C492 495.833 493.333 501.167 496 507.5C498.667 513.833 501.5 518.5 504.5 521.5C507.5 524.5 511.5 527 516.5 529C521.5 531 527 532 533 532C539 532 544.667 530.833 550 528.5C555.333 526.167 559.5 523.167 562.5 519.5C565.5 515.833 568.167 511 570.5 505C572.833 499 573.833 493.667 573.5 489C573.167 484.333 571.833 479.5 569.5 474.5C567.167 469.5 563.667 465 559 461C554.333 457 550 454.333 546 453C542 451.667 537.333 451 532 451C526.667 451 521.167 452.333 515.5 455ZM535.5 472C540.5 472.667 544.833 475.333 548.5 480C552.167 484.667 554 488.833 554 492.5C554 496.167 553.5 499.167 552.5 501.5C551.5 503.833 549.167 506.333 545.5 509C541.833 511.667 538.833 513.167 536.5 513.5C534.167 513.833 531 513.333 527 512C523 510.667 519.833 508.833 517.5 506.5C515.167 504.167 513.333 501.5 512 498.5C510.667 495.5 510.5 491.667 511.5 487C512.5 482.333 513.833 479.167 515.5 477.5C517.167 475.833 519.667 474.333 523 473C526.333 471.667 530.5 471.333 535.5 472ZM613.5 489C607.833 490.333 602.5 493 597.5 497C592.5 501 589 504.833 587 508.5C585 512.167 583.167 517.333 581.5 524C579.833 530.667 582.333 535.333 589 538C592.333 539.333 595.667 540.667 599 542C599 539.333 599 536.667 599 534C599 528.667 599.5 524.667 600.5 522C601.5 519.333 603.333 516.5 606 513.5C608.667 510.5 611.667 508.167 615 506.5C618.333 504.833 621.833 506.167 625.5 510.5C629.167 514.833 632.833 517.667 636.5 519C640.167 520.333 645 520.667 651 520C657 519.333 662 516.833 666 512.5C670 508.167 674 507.333 678 510C682 512.667 684.833 515.667 686.5 519C688.167 522.333 688.833 532.667 688.5 550C688.333 558.667 688.167 567.333 688 576C687.5 575.333 687 574.667 686.5 574C685.5 572.667 674.333 572 653 572C642.333 572 631.667 572 621 572C621.333 575.333 621.667 578.667 622 582C622.667 588.667 631.167 592.5 647.5 593.5C663.833 594.5 673 603.167 675 619.5C677 635.833 678.167 648.833 678.5 658.5C678.667 663.333 678.833 668.167 679 673C669.5 673.167 660 673.333 650.5 673.5C631.5 673.833 622 677 622 683C622 686 622 689 622 692C629.167 692 636.333 692 643.5 692C657.833 692 665.167 696.667 665.5 706C665.833 715.333 666.333 720.833 667 722.5C667.667 724.167 668.667 725.333 670 726C671.333 726.667 672.833 726 674.5 724C676.167 722 678.333 716.333 681 707C683.667 697.667 687.5 692.667 692.5 692C697.5 691.333 699.833 684.5 699.5 671.5C699.167 658.5 700.667 651.667 704 651C707.333 650.333 709 628.333 709 585C709 541.667 707.667 517.333 705 512C702.333 506.667 699.5 502.5 696.5 499.5C693.5 496.5 690 494 686 492C682 490 676.5 488.667 669.5 488C662.5 487.333 658.5 488.667 657.5 492C656.5 495.333 655.167 497.667 653.5 499C651.833 500.333 650 501 648 501C646 501 644 500 642 498C640 496 638.667 493.667 638 491C637.333 488.333 634.5 487 629.5 487C624.5 487 619.167 487.667 613.5 489ZM425.5 498.5C409.833 498.833 400.833 499.333 398.5 500C396.167 500.667 392.667 502.667 388 506C383.333 509.333 379.5 514.333 376.5 521C373.5 527.667 371.833 550.333 371.5 589C371.167 627.667 371.667 647.833 373 649.5C374.333 651.167 377.5 652 382.5 652C385 652 387.5 652 390 652C390 665.5 390 679 390 692.5C390 719.5 390.167 734 390.5 736C390.833 738 391.833 739.833 393.5 741.5C395.167 743.167 397.5 744 400.5 744C403.5 744 405.667 743.333 407 742C408.333 740.667 409.167 725.667 409.5 697C409.833 668.333 416.167 653.667 428.5 653C440.833 652.333 447 651.167 447 649.5C447 647.833 446.667 644.667 446 640C445.333 635.333 436 633 418 633C409 633 400 633 391 633C391 616.167 391 599.333 391 582.5C391 548.833 392.5 530 395.5 526C398.5 522 401.167 519.5 403.5 518.5C405.833 517.5 409 517 413 517C417 517 419.833 519.667 421.5 525C423.167 530.333 423 544 421 566C419 588 420.333 601.667 425 607C429.667 612.333 432.5 615 433.5 615C434.5 615 436.167 613.333 438.5 610C440.833 606.667 442.833 604.5 444.5 603.5C446.167 602.5 446.833 595.167 446.5 581.5C446.167 567.833 445.333 556.167 444 546.5C442.667 536.833 442 531.333 442 530C442 528.667 442.833 527.167 444.5 525.5C446.167 523.833 447 522 447 520C447 519 447 518 447 517C449.667 517.167 452.333 517.333 455 517.5C460.333 517.833 464.167 518.833 466.5 520.5C468.833 522.167 471 525 473 529C474 531 475 533 476 535C478.333 533.833 480.667 532.667 483 531.5C487.667 529.167 489.167 525.5 487.5 520.5C485.833 515.5 483.667 511.5 481 508.5C478.333 505.5 475.333 503.167 472 501.5C468.667 499.833 464 498.833 458 498.5C452 498.167 441.167 498.167 425.5 498.5ZM497.5 546.5C492.5 547.5 488 549.167 484 551.5C480 553.833 476.5 556.833 473.5 560.5C470.5 564.167 467.667 569.833 465 577.5C462.333 585.167 461.167 611 461.5 655C461.833 699 462.5 721.667 463.5 723C464.5 724.333 467.833 725.167 473.5 725.5C479.167 725.833 482.167 742.5 482.5 775.5C482.833 808.5 484.167 826.333 486.5 829C488.833 831.667 491 833 493 833C495 833 496.833 832.167 498.5 830.5C500.167 828.833 501 811.167 501 777.5C501 760.667 501 743.833 501 727C511.833 726.833 522.667 726.667 533.5 726.5C544.333 726.333 555.167 726.167 566 726C566.333 743 566.667 760 567 777C567.667 811 568.667 828.833 570 830.5C571.333 832.167 573.667 833 577 833C580.333 833 582.833 832.167 584.5 830.5C586.167 828.833 587.167 827.167 587.5 825.5C587.833 823.833 588 806.667 588 774C588 757.667 588 741.333 588 725C590.667 725 593.333 725 596 725C601.333 725 604.5 724.333 605.5 723C606.5 721.667 607 699.167 607 655.5C607 611.833 606.5 587.667 605.5 583C604.5 578.333 602.333 573.333 599 568C595.667 562.667 592.5 558.833 589.5 556.5C586.5 554.167 582.333 551.833 577 549.5C571.667 547.167 558.333 545.833 537 545.5C515.667 545.167 502.5 545.5 497.5 546.5ZM506 562C508 562 510 562 512 562C516 562 518.5 563.167 519.5 565.5C520.5 567.833 521.667 569.5 523 570.5C524.333 571.5 524.333 575.833 523 583.5C522.333 587.333 521.667 591.167 521 595C519.5 592.333 518 589.667 516.5 587C513.5 581.667 511 576.167 509 570.5C508 567.667 507 564.833 506 562ZM557.5 562.5C559.333 562.667 561.167 562.833 563 563C560 568.667 557 574.333 554 580C551 585.667 548 591.333 545 597C544.5 592.833 544 588.667 543.5 584.5C542.5 576.167 542.833 571.333 544.5 570C546.167 568.667 547.167 567.167 547.5 565.5C547.833 563.833 548.667 562.833 550 562.5C551.333 562.167 553.833 562.167 557.5 562.5ZM487.5 576.5C488.5 576.833 495.833 589 509.5 613C523.167 637 530.833 649 532.5 649C534.167 649 535.833 648.333 537.5 647C539.167 645.667 540.833 642.833 542.5 638.5C544.167 634.167 548.333 627 555 617C561.667 607 565.5 600.333 566.5 597C567.5 593.667 569 591 571 589C573 587 574.833 584.333 576.5 581C578.167 577.667 579.5 576.167 580.5 576.5C581.5 576.833 582.833 579.667 584.5 585C586.167 590.333 587 612 587 650C587 669 587 688 587 707C569.167 707 551.333 707 533.5 707C515.667 707 497.833 707 480 707C480.167 687.167 480.333 667.333 480.5 647.5C480.833 607.833 481.833 586 483.5 582C485.167 578 486.5 576.167 487.5 576.5ZM529.5 660C528.5 660.667 527.833 662 527.5 664C527.167 666 527.5 667.667 528.5 669C529.5 670.333 531.167 671.167 533.5 671.5C535.833 671.833 537.667 671.333 539 670C540.333 668.667 541 667.167 541 665.5C541 663.833 540.333 662.333 539 661C537.667 659.667 536 659 534 659C532 659 530.5 659.333 529.5 660ZM528.5 683.5C527.5 685.167 527.167 686.833 527.5 688.5C527.833 690.167 528.333 691.333 529 692C529.667 692.667 531.167 693 533.5 693C535.833 693 537.5 692.5 538.5 691.5C539.5 690.5 540 689 540 687C540 685 539.5 683.5 538.5 682.5C537.5 681.5 535.833 681 533.5 681C531.167 681 529.5 681.833 528.5 683.5Z" fill="#000000" fill-rule="nonzero" opacity="1" stroke="none" vectornator:layerName="Curva 1"/>
</g>
</svg>
