<?xml version="1.0" encoding="UTF-8" standalone="no"?>
<!DOCTYPE svg PUBLIC "-//W3C//DTD SVG 1.1//EN" "http://www.w3.org/Graphics/SVG/1.1/DTD/svg11.dtd">
<!-- Created with Vectornator (http://vectornator.io/) -->
<svg height="100%" stroke-miterlimit="10" style="fill-rule:nonzero;clip-rule:evenodd;stroke-linecap:round;stroke-linejoin:round;" version="1.1" viewBox="0 0 1024 1024" width="100%" xml:space="preserve" xmlns="http://www.w3.org/2000/svg" xmlns:vectornator="http://vectornator.io" xmlns:xlink="http://www.w3.org/1999/xlink">
<defs/>
<g id="Capa-1" vectornator:layerName="Capa 1">
<path d="M255.523 182.781C245.751 185.105 236.894 188.59 228.954 193.237C221.014 197.884 213.989 203.692 207.881 210.662C201.774 217.633 196.887 225.765 193.222 235.058C189.558 244.352 187.42 318.991 186.809 458.977C186.198 598.962 186.809 673.892 188.641 683.766C190.474 693.641 193.833 703.225 198.72 712.518C203.606 721.812 209.103 729.363 215.211 735.172C221.319 740.98 229.565 746.208 239.948 750.855C250.332 755.501 258.577 758.406 264.685 759.567C270.793 760.729 285.452 761.31 308.663 761.31C331.873 761.31 343.783 773.217 344.394 797.032C345.005 820.847 347.448 834.497 351.724 837.982C355.999 841.467 360.58 842.339 365.467 840.596C370.353 838.854 379.209 833.045 392.036 823.171C404.863 813.296 413.109 808.94 416.773 810.101C420.438 811.263 428.989 817.072 442.427 827.527C455.864 837.982 464.721 843.21 468.996 843.21C473.272 843.21 476.631 842.048 479.074 839.725C481.518 837.401 483.045 823.751 483.655 798.775C484.266 773.798 527.022 761.31 611.922 761.31C696.823 761.31 745.381 759.567 757.597 756.082C769.813 752.597 780.196 748.241 788.747 743.013C797.298 737.785 805.544 730.525 813.484 721.231C821.425 711.937 827.533 700.32 831.808 686.38C836.084 672.44 837.916 598.091 837.305 463.333C836.695 328.575 835.168 260.325 832.725 258.583C830.281 256.84 821.73 255.969 807.071 255.969C792.412 255.969 782.945 250.741 778.669 240.286C774.394 229.83 769.507 221.408 764.01 215.019C758.513 208.629 751.183 202.821 742.021 197.593C732.86 192.366 724.919 188.88 718.2 187.138C711.482 185.395 694.074 183.943 665.978 182.781C637.881 181.62 590.239 181.329 523.052 181.91C455.864 182.491 416.773 183.943 405.779 186.267C394.785 188.59 383.79 193.527 372.796 201.078C361.802 208.629 355.083 212.405 352.64 212.405C350.197 212.405 347.753 210.662 345.31 207.177C342.867 203.692 337.065 199.045 327.903 193.237C318.741 187.428 306.83 183.653 292.171 181.91C277.512 180.168 265.296 180.458 255.523 182.781ZM279.344 208.92C287.896 208.92 295.225 210.082 301.333 212.405C307.441 214.728 312.938 217.923 317.825 221.989C322.711 226.055 326.986 231.573 330.651 238.543C334.316 245.513 336.148 304.18 336.148 414.541C336.148 524.903 335.232 580.955 333.4 582.698C331.567 584.441 326.986 583.86 319.657 580.955C312.327 578.051 304.082 576.309 294.92 575.728C285.758 575.147 275.985 575.728 265.602 577.47C255.218 579.213 244.835 582.698 234.451 587.926C229.259 590.539 224.068 593.153 218.876 595.767C218.876 538.553 218.876 481.339 218.876 424.125C218.876 309.698 220.097 249.289 222.541 242.9C224.984 236.51 228.038 231.283 231.702 227.217C235.367 223.151 242.086 219.085 251.859 215.019C261.631 210.953 270.793 208.92 279.344 208.92ZM569.777 211.534C655.899 212.115 703.236 213.857 711.787 216.761C720.338 219.666 727.668 224.022 733.776 229.83C739.884 235.639 744.77 242.9 748.435 251.612C752.1 260.325 753.932 317.83 753.932 424.125C753.932 530.421 752.1 588.216 748.435 597.51C744.77 606.803 741.105 613.193 737.441 616.678C733.776 620.163 727.973 623.358 720.033 626.262C712.093 629.166 700.487 630.909 685.218 631.49C669.948 632.07 624.138 632.07 547.789 631.49C471.439 630.909 428.989 630.037 420.438 628.876C411.887 627.714 401.503 623.067 389.288 614.935C377.072 606.803 370.353 600.704 369.131 596.638C367.91 592.572 367.604 532.454 368.215 416.284C368.826 300.114 370.964 239.995 374.628 235.929C378.293 231.863 383.79 227.798 391.12 223.732C398.449 219.666 408.528 216.471 421.354 214.147C434.181 211.824 483.655 210.953 569.777 211.534ZM541.375 237.672C535.267 240.576 529.465 244.933 523.968 250.741C518.471 256.55 514.806 261.487 512.973 265.553C511.141 269.619 510.225 275.427 510.225 282.978C510.225 290.53 511.752 297.79 514.806 304.76C517.86 311.731 521.525 317.249 525.8 321.315C530.076 325.381 534.657 328.575 539.543 330.899C544.429 333.222 551.759 334.384 561.532 334.384C571.304 334.384 581.077 332.06 590.85 327.414C600.623 322.767 607.952 316.377 612.838 308.245C617.725 300.114 620.168 292.562 620.168 285.592C620.168 278.622 618.641 271.652 615.587 264.682C612.533 257.711 608.563 251.903 603.676 247.256C598.79 242.609 593.293 239.124 587.185 236.801C581.077 234.477 573.442 233.316 564.28 233.316C555.118 233.316 547.483 234.768 541.375 237.672ZM568.861 261.196C576.191 262.358 581.688 265.843 585.353 271.652C589.017 277.46 590.544 282.978 589.934 288.206C589.323 293.434 586.574 298.081 581.688 302.147C576.802 306.213 570.083 307.665 561.532 306.503C552.981 305.341 546.873 301.566 543.208 295.176C539.543 288.787 538.321 283.269 539.543 278.622C540.765 273.975 544.124 269.619 549.621 265.553C555.118 261.487 561.532 260.035 568.861 261.196ZM436.93 284.721C423.492 285.302 415.246 286.754 412.192 289.077C409.138 291.401 407.611 294.305 407.611 297.79C407.611 301.275 408.528 303.889 410.36 305.632C412.192 307.374 422.576 308.536 441.51 309.117C460.445 309.698 471.439 308.826 474.493 306.503C477.547 304.18 479.38 300.985 479.991 296.919C480.601 292.853 479.991 289.658 478.158 287.335C476.326 285.011 472.356 283.85 466.248 283.85C460.14 283.85 450.367 284.14 436.93 284.721ZM654.983 288.206C652.54 291.11 651.624 294.595 652.235 298.661C652.845 302.727 654.067 305.341 655.899 306.503C657.732 307.665 667.199 308.536 684.301 309.117C701.404 309.698 711.482 308.826 714.536 306.503C717.59 304.18 719.117 301.566 719.117 298.661C719.117 295.757 717.59 292.853 714.536 289.949C711.482 287.044 701.404 285.302 684.301 284.721C667.199 284.14 657.426 285.302 654.983 288.206ZM796.993 286.464C802.49 287.044 804.933 350.067 804.323 475.531C803.712 600.995 797.298 666.631 785.083 672.44C772.867 678.248 761.262 682.604 750.267 685.509C739.273 688.413 700.182 689.575 632.995 688.994C565.807 688.413 524.273 688.703 508.392 689.865C500.452 690.446 492.512 691.027 484.571 691.608C484.266 686.38 483.961 681.152 483.655 675.925C483.35 670.697 483.045 665.469 482.739 660.242C521.83 659.951 560.921 659.661 600.012 659.37C678.193 658.79 723.087 656.466 734.692 652.4C746.297 648.334 755.154 643.397 761.262 637.588C767.369 631.78 772.256 625.681 775.921 619.292C779.585 612.902 782.334 604.48 784.166 594.025C785.999 583.569 786.61 529.84 785.999 432.838C785.388 335.836 785.693 287.044 786.915 286.464C788.136 285.883 791.496 285.883 796.993 286.464ZM410.36 357.908C407.306 360.813 405.779 363.717 405.779 366.621C405.779 369.525 407.001 372.43 409.444 375.334C411.887 378.238 462.583 379.69 561.532 379.69C660.48 379.69 711.482 377.657 714.536 373.591C717.59 369.525 717.895 365.169 715.452 360.522C713.009 355.875 662.313 353.552 563.364 353.552C464.415 353.552 413.414 355.004 410.36 357.908ZM545.956 408.442C457.391 409.023 411.887 410.766 409.444 413.67C407.001 416.574 405.779 419.188 405.779 421.512C405.779 423.835 407.001 426.449 409.444 429.353C411.887 432.257 416.162 434 422.27 434.581C428.378 435.162 477.547 435.452 569.777 435.452C662.007 435.452 709.649 434 712.703 431.096C715.757 428.191 717.284 424.706 717.284 420.64C717.284 416.574 716.063 413.38 713.62 411.056C711.176 408.733 704.763 407.571 694.38 407.571C683.996 407.571 634.522 407.862 545.956 408.442ZM545.04 462.462C457.086 463.042 411.887 464.785 409.444 467.689C407.001 470.594 405.779 473.207 405.779 475.531C405.779 477.854 407.306 480.758 410.36 484.244C413.414 487.729 464.11 489.471 562.448 489.471C660.786 489.471 711.176 488.019 713.62 485.115C716.063 482.211 717.284 479.016 717.284 475.531C717.284 472.046 716.063 469.141 713.62 466.818C711.176 464.495 704.458 463.042 693.463 462.462C682.469 461.881 632.995 461.881 545.04 462.462ZM411.276 519.966C407.611 522.87 406.084 526.355 406.695 530.421C407.306 534.487 409.138 537.682 412.192 540.005C415.246 542.329 465.331 543.49 562.448 543.49C659.564 543.49 709.649 542.038 712.703 539.134C715.757 536.23 716.979 532.454 716.368 527.807C715.757 523.161 713.925 519.966 710.871 518.223C707.817 516.481 658.037 515.61 561.532 515.61C465.026 515.61 414.941 517.062 411.276 519.966ZM431.432 563.53C419.216 564.111 411.887 565.853 409.444 568.758C407.001 571.662 407.001 575.728 409.444 580.955C411.887 586.183 443.648 589.668 504.728 591.411C565.807 593.153 614.976 593.444 652.235 592.282C689.493 591.12 709.649 589.087 712.703 586.183C715.757 583.279 717.284 580.084 717.284 576.599C717.284 573.114 716.063 570.21 713.62 567.886C711.176 565.563 706.901 564.111 700.793 563.53C694.685 562.949 678.193 563.239 651.318 564.401C624.443 565.563 584.131 565.563 530.381 564.401C476.631 563.239 443.648 562.949 431.432 563.53ZM301.333 607.965C315.992 610.288 326.07 613.193 331.567 616.678C337.065 620.163 339.813 622.777 339.813 624.519C339.813 626.262 335.843 628.295 327.903 630.618C319.962 632.942 312.327 633.232 304.998 631.49C297.668 629.747 289.728 629.457 281.177 630.618C272.626 631.78 264.685 635.846 257.356 642.816C250.026 649.786 246.056 658.209 245.445 668.083C244.835 677.958 246.362 685.799 250.026 691.608C253.691 697.416 259.188 702.934 266.518 708.162C273.847 713.39 288.506 716.584 310.495 717.746C321.489 718.327 332.484 718.908 343.478 719.489C343.173 722.102 342.867 724.716 342.562 727.33C341.951 732.558 334.621 735.172 320.573 735.172C306.525 735.172 294.614 734.3 284.842 732.558C275.069 730.815 265.907 727.911 257.356 723.845C248.805 719.779 241.475 714.261 235.367 707.291C229.259 700.32 225.289 694.222 223.457 688.994C221.624 683.766 220.708 676.796 220.708 668.083C220.708 659.37 222.541 650.658 226.205 641.945C229.87 633.232 235.367 625.971 242.697 620.163C250.026 614.354 257.967 610.288 266.518 607.965C275.069 605.642 286.674 605.642 301.333 607.965ZM376.461 648.044C379.515 649.496 382.569 650.948 385.623 652.4C391.731 655.304 404.252 657.047 423.187 657.628C442.121 658.209 451.894 682.024 452.505 729.073C452.81 752.597 453.116 776.122 453.421 799.646C447.618 795.29 441.816 790.933 436.013 786.577C424.408 777.864 416.468 774.089 412.192 775.25C407.917 776.412 402.114 780.188 394.785 786.577C387.455 792.966 382.569 796.451 380.126 797.032C378.904 797.323 377.682 797.613 376.461 797.904C375.85 778.155 375.239 758.406 374.628 738.657C373.407 699.159 373.407 674.182 374.628 663.727C375.239 658.499 375.85 653.271 376.461 648.044ZM309.579 660.242C330.957 660.242 342.256 661.403 343.478 663.727C344.699 666.05 345.31 670.987 345.31 678.539C345.31 682.314 345.31 686.09 345.31 689.865C336.454 689.575 327.597 689.284 318.741 688.994C301.028 688.413 289.117 686.09 283.009 682.024C276.901 677.958 274.458 673.311 275.68 668.083C276.901 662.856 288.201 660.242 309.579 660.242ZM797.909 689.865C797.298 692.189 796.688 694.512 796.077 696.835C794.855 701.482 792.412 705.839 788.747 709.905C785.083 713.97 779.891 718.036 773.172 722.102C766.453 726.168 758.818 729.363 750.267 731.686C741.716 734.01 694.99 735.462 610.09 736.043C567.64 736.333 525.189 736.624 482.739 736.914C482.739 734.01 482.739 731.106 482.739 728.201C482.739 722.393 485.793 719.198 491.901 718.617C498.009 718.036 541.375 717.456 622 716.875C702.625 716.294 746.602 715.132 753.932 713.39C761.262 711.647 769.202 708.743 777.753 704.677C786.304 700.611 791.801 697.126 794.244 694.222C795.466 692.769 796.688 691.317 797.909 689.865Z" fill="#fa653e" fill-rule="nonzero" opacity="1" stroke="none" vectornator:layerName="Curva 1"/>
</g>
</svg>
