<?xml version="1.0" encoding="UTF-8" standalone="no"?>
<!DOCTYPE svg PUBLIC "-//W3C//DTD SVG 1.1//EN" "http://www.w3.org/Graphics/SVG/1.1/DTD/svg11.dtd">
<!-- Created with Vectornator (http://vectornator.io/) -->
<svg height="100%" stroke-miterlimit="10" style="fill-rule:nonzero;clip-rule:evenodd;stroke-linecap:round;stroke-linejoin:round;" version="1.1" viewBox="0 0 1024 1024" width="100%" xml:space="preserve" xmlns="http://www.w3.org/2000/svg" xmlns:vectornator="http://vectornator.io" xmlns:xlink="http://www.w3.org/1999/xlink">
<defs/>
<g id="Capa-1" vectornator:layerName="Capa 1">
<path d="M472.5 164C450.833 166.667 434.167 169.5 422.5 172.5C410.833 175.5 399 179.333 387 184C375 188.667 359.5 196.333 340.5 207C321.5 217.667 306.833 227.167 296.5 235.5C286.167 243.833 277 252 269 260C261 268 250.667 280.667 238 298C225.333 315.333 216 329.5 210 340.5C204 351.5 199.333 361.167 196 369.5C192.667 377.833 189.667 386 187 394C184.333 402 181.667 412.167 179 424.5C176.333 436.833 174.167 449.667 172.5 463C170.833 476.333 169.833 488.667 169.5 500C169.167 511.333 170.333 528 173 550C175.667 572 178.333 588 181 598C183.667 608 187.333 619.167 192 631.5C196.667 643.833 202 655.833 208 667.5C214 679.167 220 689.667 226 699C232 708.333 239.333 718.333 248 729C256.667 739.667 264.667 748.667 272 756C279.333 763.333 290.667 772.667 306 784C321.333 795.333 333.833 803.667 343.5 809C353.167 814.333 363.667 819.333 375 824C386.333 828.667 397 832.667 407 836C417 839.333 428 842.333 440 845C452 847.667 463.833 849.667 475.5 851C487.167 852.333 500.833 853 516.5 853C532.167 853 545.5 852.333 556.5 851C567.5 849.667 578.333 847.833 589 845.5C599.667 843.167 614.833 838.5 634.5 831.5C654.167 824.5 673 815.833 691 805.5C709 795.167 721.667 787.167 729 781.5C736.333 775.833 744.833 768.333 754.5 759C764.167 749.667 771.833 741.667 777.5 735C783.167 728.333 789.833 719.5 797.5 708.5C805.167 697.5 813.667 682.5 823 663.5C832.333 644.5 838.5 630.667 841.5 622C844.5 613.333 847.5 602.667 850.5 590C853.5 577.333 855.667 565.833 857 555.5C858.333 545.167 859.167 531.833 859.5 515.5C859.833 499.167 859 482 857 464C855 446 852.667 431.667 850 421C847.333 410.333 843.833 398.833 839.5 386.5C835.167 374.167 828 358.667 818 340C808 321.333 799.167 306.833 791.5 296.5C783.833 286.167 775.833 276.5 767.5 267.5C759.167 258.5 747 247.667 731 235C715 222.333 702.167 213.167 692.5 207.5C682.833 201.833 671.333 196 658 190C644.667 184 627.833 178.333 607.5 173C587.167 167.667 571.5 164.333 560.5 163C549.5 161.667 537.5 160.833 524.5 160.5C511.5 160.167 494.167 161.333 472.5 164ZM515 176C532.333 176 545.833 176.5 555.5 177.5C565.167 178.5 576.833 180.5 590.5 183.5C604.167 186.5 617.833 190.5 631.5 195.5C645.167 200.5 658.333 206.333 671 213C683.667 219.667 697.5 228.5 712.5 239.5C727.5 250.5 739.833 260.833 749.5 270.5C759.167 280.167 769 291.667 779 305C789 318.333 798.167 333 806.5 349C814.833 365 821 378.5 825 389.5C829 400.5 832.833 413.833 836.5 429.5C840.167 445.167 842.667 458.667 844 470C845.333 481.333 845.833 495.333 845.5 512C845.167 528.667 843.667 545.333 841 562C838.333 578.667 834.333 595.333 829 612C823.667 628.667 817.167 644.5 809.5 659.5C801.833 674.5 794.333 681.833 787 681.5C779.667 681.167 775.833 675.333 775.5 664C775.167 652.667 773.333 645 770 641C766.667 637 763.333 634.667 760 634C756.667 633.333 755.167 602.5 755.5 541.5C755.833 480.5 757.667 449.5 761 448.5C764.333 447.5 767 445.833 769 443.5C771 441.167 772.5 438.667 773.5 436C774.5 433.333 774.667 425.167 774 411.5C773.667 404.667 773.333 397.833 773 391C777 390.833 781 390.667 785 390.5C793 390.167 797 384.833 797 374.5C797 364.167 750.5 331.667 657.5 277C564.5 222.333 517.333 195 516 195C514.667 195 499 203.5 469 220.5C439 237.5 407.833 255.833 375.5 275.5C343.167 295.167 311.167 314 279.5 332C247.833 350 232 364.333 232 375C232 385.667 235.5 391.167 242.5 391.5C246 391.667 249.5 391.833 253 392C252.833 395.167 252.667 398.333 252.5 401.5C252.167 407.833 252.833 411.167 254.5 411.5C255.333 411.667 256.167 411.833 257 412C256.5 413.167 256 414.333 255.5 415.5C254.5 417.833 254.167 421.833 254.5 427.5C254.833 433.167 256.5 438 259.5 442C262.5 446 265.667 448.333 269 449C272.333 449.667 274 480.5 274 541.5C274 602.5 272.5 633.333 269.5 634C266.5 634.667 263 637.667 259 643C255 648.333 253 656 253 666C253 671 253 676 253 681C249.333 681 245.667 681 242 681C234.667 681 228.167 675.5 222.5 664.5C216.833 653.5 211.667 641.833 207 629.5C202.333 617.167 198 603 194 587C190 571 187.333 557 186 545C184.667 533 184.167 518.667 184.5 502C184.833 485.333 186.333 468.333 189 451C191.667 433.667 194.333 420.167 197 410.5C199.667 400.833 203.667 389.333 209 376C214.333 362.667 220.667 349.667 228 337C235.333 324.333 243 312.667 251 302C259 291.333 267.833 281.167 277.5 271.5C287.167 261.833 299.5 251.5 314.5 240.5C329.5 229.5 343.667 220.5 357 213.5C370.333 206.5 383.167 200.667 395.5 196C407.833 191.333 420.5 187.5 433.5 184.5C446.5 181.5 459 179.333 471 178C483 176.667 497.667 176 515 176ZM540.5 225C558.167 234.333 589.5 252.667 634.5 280C679.5 307.333 707 323.667 717 329C727 334.333 739.167 341.667 753.5 351C767.833 360.333 775.5 365 776.5 365C777.5 365 778.333 367.167 779 371.5C779.333 373.667 779.667 375.833 780 378C691.167 378 602.333 378 513.5 378C424.667 378 335.833 378 247 378C247.167 376 247.333 374 247.5 372C247.833 368 248.5 366 249.5 366C250.5 366 257.167 362 269.5 354C281.833 346 315.333 326 370 294C424.667 262 461.167 241.167 479.5 231.5C497.833 221.833 508.167 216 510.5 214C512.833 212 522.833 215.667 540.5 225ZM471.5 252C442.5 269.333 423.167 280.5 413.5 285.5C403.833 290.5 390 298.667 372 310C354 321.333 341 329 333 333C325 337 317.667 341.333 311 346C304.333 350.667 297.833 354.333 291.5 357C285.167 359.667 282 361.667 282 363C282 363.667 282 364.333 282 365C360 364.833 438 364.667 516 364.5C594 364.333 672 364.167 750 364C749.5 363.333 749 362.667 748.5 362C747.5 360.667 744.167 358.833 738.5 356.5C732.833 354.167 707 339 661 311C615 283 579.167 261.833 553.5 247.5C527.833 233.167 500.5 234.667 471.5 252ZM526 248C528.667 249.333 530.5 251 531.5 253C532.5 255 533.5 255.833 534.5 255.5C535.5 255.167 536.333 255.5 537 256.5C537.333 257 537.667 257.5 538 258C538.167 257.667 538.333 257.333 538.5 257C538.833 256.333 539.833 256.167 541.5 256.5C543.167 256.833 545.333 258.167 548 260.5C550.667 262.833 560.833 269 578.5 279C596.167 289 606 295 608 297C610 299 615 302.167 623 306.5C631 310.833 635.833 313.833 637.5 315.5C639.167 317.167 648.5 322.5 665.5 331.5C682.5 340.5 691.667 346 693 348C693.667 349 694.333 350 695 351C641.167 351.167 587.333 351.333 533.5 351.5C425.833 351.833 366.5 351.667 355.5 351C350 350.667 344.5 350.333 339 350C339.333 349.167 339.667 348.333 340 347.5C340.667 345.833 342.333 344.167 345 342.5C347.667 340.833 349.667 340 351 340C351.667 340 352.333 340 353 340C353 340.667 353 341.333 353 342C353 342.667 353 343.333 353 344C353.333 343.667 353.667 343.333 354 343C354.667 342.333 355.833 342.5 357.5 343.5C358.333 344 359.167 344.5 360 345C359.667 343.5 359.333 342 359 340.5C358.333 337.5 358.5 335.333 359.5 334C360 333.333 360.5 332.667 361 332C361.167 332.5 361.333 333 361.5 333.5C361.667 334 361.833 334.5 362 335C362.667 334.667 363.333 334.333 364 334C365.333 333.333 366 332.5 366 331.5C366 331 366 330.5 366 330C366.167 331.167 366.333 332.333 366.5 333.5C366.833 335.833 368.667 338 372 340C373.667 341 375.333 342 377 343C376.833 339.833 376.667 336.667 376.5 333.5C376.167 327.167 376.833 323.5 378.5 322.5C380.167 321.5 381.667 321.167 383 321.5C384.333 321.833 385.167 321.5 385.5 320.5C385.833 319.5 386.5 319 387.5 319C388.5 319 389.167 318.5 389.5 317.5C389.833 316.5 391.833 314.833 395.5 312.5C399.167 310.167 401.333 309 402 309C402.333 309 402.667 309 403 309C403 309.5 403 310 403 310.5C403 311 403 311.5 403 312C403.333 311.5 403.667 311 404 310.5C404.667 309.5 406 309.167 408 309.5C410 309.833 411.333 309.667 412 309C412.667 308.333 413.667 308.5 415 309.5C416.333 310.5 417.167 312 417.5 314C417.833 316 418.5 317.167 419.5 317.5C420 317.667 420.5 317.833 421 318C421.167 317.333 421.333 316.667 421.5 316C421.667 315.333 421.833 314.667 422 314C421.5 314.167 421 314.333 420.5 314.5C420 314.667 419.5 314.833 419 315C418.667 313.833 418.333 312.667 418 311.5C417.333 309.167 416.667 308 416 308C415.667 308 415.333 308 415 308C415 306.833 415 305.667 415 304.5C415 302.167 416.5 300.167 419.5 298.5C421 297.667 422.5 296.833 424 296C424.167 297 424.333 298 424.5 299C424.833 301 426 303 428 305C430 307 431.667 308 433 308C434.333 308 435.167 306.5 435.5 303.5C435.833 300.5 435.5 297.667 434.5 295C433.5 292.333 434.333 290.167 437 288.5C439.667 286.833 441.5 286.333 442.5 287C443.5 287.667 444.5 289.667 445.5 293C446.5 296.333 447.833 298.333 449.5 299C450.333 299.333 451.167 299.667 452 300C452.333 298.5 452.667 297 453 295.5C453.667 292.5 453.333 289.333 452 286C450.667 282.667 450.833 280.5 452.5 279.5C454.167 278.5 455.667 277.833 457 277.5C457.667 277.333 458.333 277.167 459 277C459 277.667 459 278.333 459 279C459 280.333 459.5 281.167 460.5 281.5C461.5 281.833 462 283.167 462 285.5C462 287.833 463.167 289.5 465.5 290.5C466.667 291 467.833 291.5 469 292C469.333 291 469.667 290 470 289C470.667 287 470.167 283.833 468.5 279.5C467.667 277.333 466.833 275.167 466 273C466.833 272.667 467.667 272.333 468.5 272C470.167 271.333 471.5 271.667 472.5 273C473.5 274.333 473.833 275.333 473.5 276C473.333 276.333 473.167 276.667 473 277C473.5 277 474 277 474.5 277C475 277 475.5 277 476 277C475.5 275.667 475 274.333 474.5 273C474 271.667 473.5 270.333 473 269C473.667 269.167 474.333 269.333 475 269.5C475.667 269.667 476.333 269.833 477 270C476.833 269.5 476.667 269 476.5 268.5C476.167 267.5 476.5 266.5 477.5 265.5C478.5 264.5 479.833 263.5 481.5 262.5C483.167 261.5 484.5 261.333 485.5 262C486 262.333 486.5 262.667 487 263C487 262.333 487 261.667 487 261C487 259.667 488.333 258.333 491 257C493.667 255.667 495.333 255 496 255C496.333 255 496.667 255 497 255C496.833 255.667 496.667 256.333 496.5 257C496.167 258.333 496.333 259.5 497 260.5C497.333 261 497.667 261.5 498 262C498.167 261.667 498.333 261.333 498.5 261C498.833 260.333 499.5 260.167 500.5 260.5C501 260.667 501.5 260.833 502 261C501.5 260.5 501 260 500.5 259.5C499.5 258.5 499 257.167 499 255.5C499 253.833 499.833 252.5 501.5 251.5C503.167 250.5 504.333 250.333 505 251C505.333 251.333 505.667 251.667 506 252C506.333 251.167 506.667 250.333 507 249.5C507.667 247.833 508.667 247.167 510 247.5C511.333 247.833 512.333 249.667 513 253C513.667 256.333 515.167 258.333 517.5 259C518.667 259.333 519.833 259.667 521 260C520.667 258.167 520.333 256.333 520 254.5C519.333 250.833 519.5 248.5 520.5 247.5C521.5 246.5 523.333 246.667 526 248ZM505.5 274.5C500.5 276.167 495.833 279.167 491.5 283.5C487.167 287.833 484.5 291.333 483.5 294C482.5 296.667 482 300.667 482 306C482 311.333 482.833 316 484.5 320C486.167 324 488.667 327.5 492 330.5C495.333 333.5 499.167 335.833 503.5 337.5C507.833 339.167 512.167 340 516.5 340C520.833 340 525.167 339.167 529.5 337.5C533.833 335.833 537.5 333.5 540.5 330.5C543.5 327.5 546 324 548 320C550 316 551 311.5 551 306.5C551 301.5 550.167 297.167 548.5 293.5C546.833 289.833 544.5 286.5 541.5 283.5C538.5 280.5 534.833 278 530.5 276C526.167 274 522.167 272.833 518.5 272.5C514.833 272.167 510.5 272.833 505.5 274.5ZM567 284C565.667 284.667 564.833 285.833 564.5 287.5C564.167 289.167 564.5 290.5 565.5 291.5C566.5 292.5 568 293 570 293C572 293 573.167 291.833 573.5 289.5C573.833 287.167 573.167 285.5 571.5 284.5C569.833 283.5 568.333 283.333 567 284ZM522 289C526.667 290.333 530.167 292.833 532.5 296.5C534.833 300.167 536 303.333 536 306C536 308.667 535.5 311.167 534.5 313.5C533.5 315.833 531.167 318.333 527.5 321C523.833 323.667 520.167 325 516.5 325C512.833 325 510 324.5 508 323.5C506 322.5 504 321 502 319C500 317 498.5 314.667 497.5 312C496.5 309.333 496.5 306 497.5 302C498.5 298 499.833 295.167 501.5 293.5C503.167 291.833 505.833 290.333 509.5 289C513.167 287.667 517.333 287.667 522 289ZM591 297C590.333 298.333 590.167 299.833 590.5 301.5C590.833 303.167 592.5 304 595.5 304C597 304 598.5 304 600 304C599.833 302.667 599.667 301.333 599.5 300C599.167 297.333 597.833 295.833 595.5 295.5C593.167 295.167 591.667 295.667 591 297ZM398.5 315C398.333 315.667 398.167 316.333 398 317C398.5 316.833 399 316.667 399.5 316.5C400 316.333 400.5 316.167 401 316C401 316.667 401 317.333 401 318C401 318.667 401 319.333 401 320C401.167 319.167 401.333 318.333 401.5 317.5C401.833 315.833 401.5 314.667 400.5 314C400 313.667 399.5 313.333 399 313C398.833 313.667 398.667 314.333 398.5 315ZM403 321.5C402.333 323.167 403 324.833 405 326.5C406 327.333 407 328.167 408 329C408.167 327.833 408.333 326.667 408.5 325.5C408.833 323.167 408.667 321.5 408 320.5C407.333 319.5 406.5 319 405.5 319C404.5 319 403.667 319.833 403 321.5ZM620 323C618.667 324.333 618 325.833 618 327.5C618 329.167 618.5 330.833 619.5 332.5C620.5 334.167 621.667 335 623 335C624.333 335 625.5 333.5 626.5 330.5C627.5 327.5 627 325.167 625 323.5C623 321.833 621.333 321.667 620 323ZM582 324.5C580.667 325.5 580 327.5 580 330.5C580 333.5 581.333 335.333 584 336C586.667 336.667 588.5 335.667 589.5 333C590.5 330.333 590.667 328.167 590 326.5C589.333 324.833 588.167 323.833 586.5 323.5C584.833 323.167 583.333 323.5 582 324.5ZM387.5 325.5C386.5 326.5 386 328 386 330C386 332 387 333.667 389 335C391 336.333 392.5 336.5 393.5 335.5C394.5 334.5 395 333.333 395 332C395 330.667 394 329 392 327C391 326 390 325 389 324C388.5 324.5 388 325 387.5 325.5ZM442.5 325.5C441.5 326.5 441 328.333 441 331C441 333.667 442 335.333 444 336C446 336.667 447.667 335.667 449 333C450.333 330.333 450.5 328.333 449.5 327C448.5 325.667 447.333 324.833 446 324.5C444.667 324.167 443.5 324.5 442.5 325.5ZM461 327C460.333 327.667 460 329.167 460 331.5C460 333.833 461.5 335.167 464.5 335.5C466 335.667 467.5 335.833 469 336C469.167 334.667 469.333 333.333 469.5 332C469.833 329.333 468.667 327.667 466 327C463.333 326.333 461.667 326.333 461 327ZM561 327C560.333 327.667 560 329.333 560 332C560 334.667 561 336.333 563 337C565 337.667 566.667 337.5 568 336.5C569.333 335.5 570 333.833 570 331.5C570 329.167 568.667 327.667 566 327C563.333 326.333 561.667 326.333 561 327ZM601 331.5C601 333.333 601 335.167 601 337C602.167 337 603.333 337 604.5 337C606.833 337 608.167 335.333 608.5 332C608.833 328.667 607.667 326.833 605 326.5C603.667 326.333 602.333 326.167 601 326C601 327.833 601 329.667 601 331.5ZM423.5 329C422.5 330.333 422.167 332 422.5 334C422.833 336 424 337 426 337C428 337 429.333 335.667 430 333C430.667 330.333 430 328.667 428 328C426 327.333 424.5 327.667 423.5 329ZM637.5 334C637.833 336.667 639 338.167 641 338.5C643 338.833 644.333 338 645 336C645.667 334 645.5 332.5 644.5 331.5C643.5 330.5 642 330 640 330C639 330 638 330 637 330C637.167 331.333 637.333 332.667 637.5 334ZM655 332.5C655.667 332.833 655.833 333.5 655.5 334.5C655.167 335.5 655.833 336.5 657.5 337.5C658.333 338 659.167 338.5 660 339C659.833 338.167 659.667 337.333 659.5 336.5C659.167 334.833 658.167 333.667 656.5 333C655.667 332.667 654.833 332.333 654 332C654.333 332.167 654.667 332.333 655 332.5ZM265 391C266.333 391.167 267.667 391.333 269 391.5C271.667 391.833 273 393.5 273 396.5C273 398 273 399.5 273 401C271.667 401 270.333 401 269 401C267.667 401 266.333 401 265 401C265 399.333 265 397.667 265 396C265 394.333 265 392.667 265 391ZM340 391C341.333 391 342.667 391 344 391C345.333 391 346.667 391 348 391C348 392.5 348 394 348 395.5C348 398.5 346.667 400.167 344 400.5C342.667 400.667 341.333 400.833 340 401C340 399.333 340 397.667 340 396C340 394.333 340 392.667 340 391ZM378 391C379.333 391.167 380.667 391.333 382 391.5C384.667 391.833 386 393.5 386 396.5C386 398 386 399.5 386 401C384.667 401 383.333 401 382 401C380.667 401 379.333 401 378 401C378 399.333 378 397.667 378 396C378 394.333 378 392.667 378 391ZM398 391C399.167 391.167 400.333 391.333 401.5 391.5C403.833 391.833 405 393.5 405 396.5C405 398 405 399.5 405 401C403.667 400.833 402.333 400.667 401 400.5C399.667 400.333 398.333 400.167 397 400C397.167 398.5 397.333 397 397.5 395.5C397.667 394 397.833 392.5 398 391ZM470 391C471.167 391.167 472.333 391.333 473.5 391.5C475.833 391.833 477 393.5 477 396.5C477 398 477 399.5 477 401C475.667 401 474.333 401 473 401C471.667 401 470.333 401 469 401C469.167 399.333 469.333 397.667 469.5 396C469.667 394.333 469.833 392.667 470 391ZM678 391C679.333 391 680.667 391 682 391C684.667 391 686.167 392.667 686.5 396C686.667 397.667 686.833 399.333 687 401C685.5 401 684 401 682.5 401C681 401 679.5 401 678 401C678 399.333 678 397.667 678 396C678 394.333 678 392.667 678 391ZM287.5 392C288.667 392 289.833 392 291 392C291 393.5 291 395 291 396.5C291 398 291 399.5 291 401C289.667 401 288.333 401 287 401C285.667 401 284.333 401 283 401C283.167 399.5 283.333 398 283.5 396.5C283.833 393.5 285.167 392 287.5 392ZM302 392C303.333 392 304.667 392 306 392C308.667 392 310.167 393.5 310.5 396.5C310.667 398 310.833 399.5 311 401C309.5 401 308 401 306.5 401C305 401 303.5 401 302 401C302 399.5 302 398 302 396.5C302 395 302 393.5 302 392ZM321 392C322.333 392.167 323.667 392.333 325 392.5C327.667 392.833 329 394.333 329 397C329 398.333 329 399.667 329 401C327.667 401 326.333 401 325 401C323.667 401 322.333 401 321 401C321 399.5 321 398 321 396.5C321 395 321 393.5 321 392ZM358 392C359.5 392 361 392 362.5 392C364 392 365.5 392 367 392C367 393.5 367 395 367 396.5C367 398 367 399.5 367 401C365.667 401 364.333 401 363 401C360.333 401 358.833 399.5 358.5 396.5C358.333 395 358.167 393.5 358 392ZM415 392C416.333 392 417.667 392 419 392C420.333 392 421.667 392 423 392C423 393.5 423 395 423 396.5C423 398 423 399.5 423 401C421.667 401 420.333 401 419 401C417.667 401 416.333 401 415 401C415 399.5 415 398 415 396.5C415 395 415 393.5 415 392ZM434 392C435.167 392 436.333 392 437.5 392C438.667 392 439.833 392 441 392C441 393.5 441 395 441 396.5C441 398 441 399.5 441 401C439.833 401 438.667 401 437.5 401C436.333 401 435.167 401 434 401C434 399.5 434 398 434 396.5C434 395 434 393.5 434 392ZM452 392C453.167 392 454.333 392 455.5 392C456.667 392 457.833 392 459 392C458.833 393.5 458.667 395 458.5 396.5C458.167 399.5 457 401 455 401C454 401 453 401 452 401C452 399.5 452 398 452 396.5C452 395 452 393.5 452 392ZM487 392C488.333 392 489.667 392 491 392C492.333 392 493.667 392 495 392C495 393.5 495 395 495 396.5C495 398 495 399.5 495 401C493.667 401 492.333 401 491 401C489.667 401 488.333 401 487 401C487 399.5 487 398 487 396.5C487 395 487 393.5 487 392ZM505 392C506.333 392 507.667 392 509 392C510.333 392 511.667 392 513 392C512.833 393.333 512.667 394.667 512.5 396C512.167 398.667 510.833 400 508.5 400C507.333 400 506.167 400 505 400C505 398.667 505 397.333 505 396C505 394.667 505 393.333 505 392ZM552 392C553.333 392 554.667 392 556 392C558.667 392 560.167 393.5 560.5 396.5C560.667 398 560.833 399.5 561 401C559.667 400.833 558.333 400.667 557 400.5C554.333 400.167 552.833 398.667 552.5 396C552.333 394.667 552.167 393.333 552 392ZM571 392C572.167 392 573.333 392 574.5 392C575.667 392 576.833 392 578 392C577.833 393.5 577.667 395 577.5 396.5C577.167 399.5 576 401 574 401C573 401 572 401 571 401C571 399.5 571 398 571 396.5C571 395 571 393.5 571 392ZM589 392C590.333 392 591.667 392 593 392C594.333 392 595.667 392 597 392C597 393.5 597 395 597 396.5C597 398 597 399.5 597 401C595.667 400.833 594.333 400.667 593 400.5C590.333 400.167 589 398.667 589 396C589 394.667 589 393.333 589 392ZM607 392C608.167 392 609.333 392 610.5 392C611.667 392 612.833 392 614 392C614 393.5 614 395 614 396.5C614 398 614 399.5 614 401C613 401 612 401 611 401C609 401 607.833 399.5 607.5 396.5C607.333 395 607.167 393.5 607 392ZM625 392C626.167 392 627.333 392 628.5 392C629.667 392 630.833 392 632 392C631.833 393.5 631.667 395 631.5 396.5C631.167 399.5 630 401 628 401C627 401 626 401 625 401C625 399.5 625 398 625 396.5C625 395 625 393.5 625 392ZM646 392C647 392 648 392 649 392C649 393.5 649 395 649 396.5C649 398 649 399.5 649 401C647.833 401 646.667 401 645.5 401C644.333 401 643.167 401 642 401C642.167 399.5 642.333 398 642.5 396.5C642.833 393.5 644 392 646 392ZM660 392C661.333 392 662.667 392 664 392C665.333 392 666.667 392 668 392C668 393.5 668 395 668 396.5C668 398 668 399.5 668 401C666.667 401 665.333 401 664 401C662.667 401 661.333 401 660 401C660 399.5 660 398 660 396.5C660 395 660 393.5 660 392ZM697 392C698.333 392 699.667 392 701 392C702.333 392 703.667 392 705 392C705 393.5 705 395 705 396.5C705 398 705 399.5 705 401C703.667 401 702.333 401 701 401C699.667 401 698.333 401 697 401C697 399.5 697 398 697 396.5C697 395 697 393.5 697 392ZM716 392C717.333 392 718.667 392 720 392C721.333 392 722.667 392 724 392C723.833 393.5 723.667 395 723.5 396.5C723.167 399.5 721.833 401 719.5 401C718.333 401 717.167 401 716 401C716 399.5 716 398 716 396.5C716 395 716 393.5 716 392ZM734 392C735.333 392 736.667 392 738 392C739.333 392 740.667 392 742 392C742 393.5 742 395 742 396.5C742 398 742 399.5 742 401C740.833 401 739.667 401 738.5 401C736.167 401 734.833 399.5 734.5 396.5C734.333 395 734.167 393.5 734 392ZM753 392C754.333 392 755.667 392 757 392C758.333 392 759.667 392 761 392C761 393.5 761 395 761 396.5C761 398 761 399.5 761 401C759.667 401 758.333 401 757 401C755.667 401 754.333 401 753 401C753 399.5 753 398 753 396.5C753 395 753 393.5 753 392ZM646.5 414.5C648.833 414.833 650.167 415.333 650.5 416C650.667 416.333 650.833 416.667 651 417C651.667 416.5 652.333 416 653 415.5C653.667 415 654.333 414.5 655 414C655 414.333 655 414.667 655 415C655 415.667 655.833 416.333 657.5 417C659.167 417.667 660.333 418 661 418C661.333 418 661.667 418 662 418C661.833 417.5 661.667 417 661.5 416.5C661.333 416 661.167 415.5 661 415C662 415.333 663 415.667 664 416C666 416.667 669 416.667 673 416C675 415.667 677 415.333 679 415C678.5 416.833 678 418.667 677.5 420.5C676.5 424.167 676.833 428.5 678.5 433.5C680.167 438.5 682.333 442.333 685 445C687.667 447.667 690.5 449.333 693.5 450C696.5 450.667 697.667 454 697 460C696.333 466 696.167 496.333 696.5 551C696.833 605.667 695.333 633.5 692 634.5C688.667 635.5 685.333 637.833 682 641.5C678.667 645.167 676.333 650.5 675 657.5C673.667 664.5 673 670.167 673 674.5C673 676.667 673 678.833 673 681C668.667 681 664.333 681 660 681C651.333 681 646.833 675.833 646.5 665.5C646.167 655.167 644 647.5 640 642.5C636 637.5 632.5 634.667 629.5 634C626.5 633.333 624.833 602.667 624.5 542C624.167 481.333 625.667 450.5 629 449.5C632.333 448.5 634.667 447.167 636 445.5C637.333 443.833 638.833 441.167 640.5 437.5C642.167 433.833 643 429.833 643 425.5C643 421.167 642.667 418.333 642 417C641.667 416.333 641.333 415.667 641 415C641.333 414.833 641.667 414.667 642 414.5C642.667 414.167 644.167 414.167 646.5 414.5ZM351 415C357.5 415 364 415 370.5 415C377 415 383.5 415 390 415C389.333 416.333 388.667 417.667 388 419C386.667 421.667 386.333 425 387 429C387.667 433 389.833 437.333 393.5 442C397.167 446.667 400.333 449.167 403 449.5C405.667 449.833 407 480.5 407 541.5C407 602.5 405.167 633.333 401.5 634C397.833 634.667 394.333 636.833 391 640.5C387.667 644.167 385.333 651.833 384 663.5C382.667 675.167 377.667 681 369 681C360.333 681 355.833 675.5 355.5 664.5C355.167 653.5 353.333 645.833 350 641.5C346.667 637.167 343.167 634.667 339.5 634C335.833 633.333 334 602.667 334 542C334 481.333 335.333 450.667 338 450C340.667 449.333 343.667 446.833 347 442.5C350.333 438.167 352.333 433.5 353 428.5C353.667 423.5 353.5 420 352.5 418C352 417 351.5 416 351 415ZM483 415C492.667 415.167 502.333 415.333 512 415.5C521.667 415.667 531.333 415.833 541 416C541 416.333 541 416.667 541 417C541 417.333 541 417.667 541 418C541.5 418 542 418 542.5 418C543 418 543.5 418 544 418C543.833 420 543.667 422 543.5 424C543.167 428 543.667 431.667 545 435C546.333 438.333 548.333 441.333 551 444C553.667 446.667 556.667 448.333 560 449C563.333 449.667 565 480.5 565 541.5C565 602.5 563.167 633.333 559.5 634C555.833 634.667 552.833 636.167 550.5 638.5C548.167 640.833 546.167 643.667 544.5 647C543.667 648.667 542.833 650.333 542 652C541.833 638.833 541.667 625.667 541.5 612.5C541.167 586.167 540.167 572 538.5 570C536.833 568 534.167 565.833 530.5 563.5C526.833 561.167 521.833 560 515.5 560C509.167 560 503.667 561.833 499 565.5C494.333 569.167 491.5 572 490.5 574C489.5 576 489.167 592.5 489.5 623.5C489.667 639 489.833 654.5 490 670C489.833 667.167 489.667 664.333 489.5 661.5C489.167 655.833 488.333 651.5 487 648.5C485.667 645.5 483.5 642.5 480.5 639.5C477.5 636.5 474 634.667 470 634C466 633.333 464 602.667 464 542C464 481.333 465.5 450.833 468.5 450.5C471.5 450.167 474.333 448.667 477 446C479.667 443.333 481.667 440.5 483 437.5C484.333 434.5 484.667 430 484 424C483.667 421 483.333 418 483 415ZM302.5 417.5C322.833 417.833 333.833 419.5 335.5 422.5C337.167 425.5 337.333 428 336 430C334.667 432 333 433.167 331 433.5C329 433.833 319.167 434.167 301.5 434.5C283.833 434.833 273.833 434 271.5 432C269.167 430 268 427.667 268 425C268 422.333 268.667 420.333 270 419C271.333 417.667 282.167 417.167 302.5 417.5ZM437 417.5C455.667 417.833 465.833 418.833 467.5 420.5C469.167 422.167 470 424 470 426C470 428 469.5 429.667 468.5 431C467.5 432.333 466.333 433.167 465 433.5C463.667 433.833 453.667 434 435 434C416.333 434 406.167 433.167 404.5 431.5C402.833 429.833 402 427.833 402 425.5C402 423.167 402.5 421.333 403.5 420C404.5 418.667 405.667 417.833 407 417.5C408.333 417.167 418.333 417.167 437 417.5ZM592.5 417.5C611.5 417.833 621.833 419 623.5 421C625.167 423 626 425 626 427C626 429 625.667 430.5 625 431.5C624.333 432.5 614 433.167 594 433.5C574 433.833 563 433.167 561 431.5C559 429.833 558 427.833 558 425.5C558 423.167 559 421.167 561 419.5C563 417.833 573.5 417.167 592.5 417.5ZM725.5 417C745.167 417 755.833 417.833 757.5 419.5C759.167 421.167 760 423.167 760 425.5C760 427.833 759.167 429.833 757.5 431.5C755.833 433.167 745.333 434 726 434C706.667 434 695.833 432.5 693.5 429.5C691.167 426.5 690.167 424.333 690.5 423C690.833 421.667 691.833 420.333 693.5 419C695.167 417.667 705.833 417 725.5 417ZM580 448C581.5 448 583 448 584.5 448C586 448 587.5 448 589 448C588.833 478.833 588.667 509.667 588.5 540.5C588.333 571.333 588.167 602.167 588 633C586.5 633 585 633 583.5 633C582 633 580.5 633 579 633C579.167 602.167 579.333 571.333 579.5 540.5C579.667 509.667 579.833 478.833 580 448ZM288 449C289.667 449 291.333 449 293 449C294.667 449 296.333 449 298 449C298 479.5 298 510 298 540.5C298 601.5 297.5 632.167 296.5 632.5C295.5 632.833 293.833 633 291.5 633C290.333 633 289.167 633 288 633C288 602.333 288 571.667 288 541C288 510.333 288 479.667 288 449ZM310 449C311.333 449 312.667 449 314 449C315.333 449 316.667 449 318 449C318 475.333 318 501.667 318 528C318 580.667 317.833 611.167 317.5 619.5C317.167 627.833 315.667 632.167 313 632.5C311.667 632.667 310.333 632.833 309 633C309.167 602.333 309.333 571.667 309.5 541C309.667 510.333 309.833 479.667 310 449ZM420 449C421.5 449 423 449 424.5 449C426 449 427.5 449 429 449C428.833 479.833 428.667 510.667 428.5 541.5C428.333 572.333 428.167 603.167 428 634C426.667 633.833 425.333 633.667 424 633.5C421.333 633.167 420 602.333 420 541C420 510.333 420 479.667 420 449ZM441 449C442.5 449 444 449 445.5 449C447 449 448.5 449 450 449C450 450.667 450 452.333 450 454C450 457.333 449.667 459.167 449 459.5C448.667 459.667 448.333 459.833 448 460C448.333 460.333 448.667 460.667 449 461C449.667 461.667 449.667 466.333 449 475C448.333 483.667 448 512.167 448 560.5C448 584.667 448 608.833 448 633C446.667 633 445.333 633 444 633C442.667 633 441.333 633 440 633C440.167 602.333 440.333 571.667 440.5 541C440.667 510.333 440.833 479.667 441 449ZM605 449C606.333 449 607.667 449 609 449C609 479.5 609 510 609 540.5C609 601.5 607.5 632.167 604.5 632.5C603 632.667 601.5 632.833 600 633C599.833 604.333 599.667 575.667 599.5 547C599.167 489.667 599.333 459 600 455C600.667 451 602.333 449 605 449ZM711 449C712.667 449 714.333 449 716 449C717.667 449 719.333 449 721 449C720.833 479.667 720.667 510.333 720.5 541C720.333 571.667 720.167 602.333 720 633C718.5 633 717 633 715.5 633C714 633 712.5 633 711 633C711 602.333 711 571.667 711 541C711 510.333 711 479.667 711 449ZM733 449C734.5 449 736 449 737.5 449C739 449 740.5 449 742 449C741.833 479.667 741.667 510.333 741.5 541C741.333 571.667 741.167 602.333 741 633C739.667 633 738.333 633 737 633C735.667 633 734.333 633 733 633C733 602.333 733 571.667 733 541C733 510.333 733 479.667 733 449ZM221.5 453.5C218.5 455.833 216.167 458.5 214.5 461.5C212.833 464.5 211 466.333 209 467C207 467.667 206.167 469.833 206.5 473.5C206.833 477.167 214.833 478.833 230.5 478.5C246.167 478.167 254.167 476.167 254.5 472.5C254.833 468.833 253.667 466.667 251 466C248.333 465.333 246.5 463.333 245.5 460C244.5 456.667 242.667 454.167 240 452.5C237.333 450.833 234.333 450 231 450C227.667 450 224.5 451.167 221.5 453.5ZM792 453.5C788.667 455.833 786.5 458.167 785.5 460.5C784.5 462.833 782.333 464.5 779 465.5C775.667 466.5 774 469 774 473C774 475 774 477 774 479C782.333 479 790.667 479 799 479C815.667 479 824.167 477 824.5 473C824.833 469 823.5 466.667 820.5 466C817.5 465.333 815.833 464 815.5 462C815.167 460 814.167 458 812.5 456C810.833 454 807.833 452.5 803.5 451.5C799.167 450.5 795.333 451.167 792 453.5ZM356 490C356 506 360.833 514.167 370.5 514.5C375.333 514.667 380.167 514.833 385 515C385.167 507 385.333 499 385.5 491C385.667 483 385.833 475 386 467C381 466.833 376 466.667 371 466.5C366 466.333 361 466.167 356 466C356 474 356 482 356 490ZM500 491C500 499 500 507 500 515C504.833 515 509.667 515 514.5 515C524.167 515 529.333 507.167 530 491.5C530.333 483.667 530.667 475.833 531 468C525.833 467.833 520.667 467.667 515.5 467.5C510.333 467.333 505.167 467.167 500 467C500 475 500 483 500 491ZM645.5 490.5C645.833 506.167 650.833 514 660.5 514C670.167 514 675.167 506.167 675.5 490.5C675.667 482.667 675.833 474.833 676 467C670.833 467 665.667 467 660.5 467C655.333 467 650.167 467 645 467C645.167 474.833 645.333 482.667 645.5 490.5ZM356 585C356 601 361 609.167 371 609.5C376 609.667 381 609.833 386 610C386 601.833 386 593.667 386 585.5C386 577.333 386 569.167 386 561C381 561 376 561 371 561C366 561 361 561 356 561C356 569 356 577 356 585ZM645 586C645 594 645 602 645 610C649.833 610 654.667 610 659.5 610C669.167 610 674.333 602 675 586C675.333 578 675.667 570 676 562C670.833 562 665.667 562 660.5 562C655.333 562 650.167 562 645 562C645 570 645 578 645 586ZM505.5 611C507.167 611 508.167 611.333 508.5 612C508.833 612.667 509 614.167 509 616.5C509 618.833 508.667 620.333 508 621C507.333 621.667 506 621.5 504 620.5C502 619.5 501.333 617.667 502 615C502.667 612.333 503.833 611 505.5 611ZM522 612C523 612.167 524 612.333 525 612.5C526 612.667 527 612.833 528 613C527.667 614.167 527.333 615.333 527 616.5C526.333 618.833 525.167 619.833 523.5 619.5C521.833 619.167 521.167 617.833 521.5 615.5C521.667 614.333 521.833 613.167 522 612ZM305.5 647.5C325.833 647.833 336.333 650 337 654C337.333 656 337.667 658 338 660C327 660 316 660 305 660C283 660 271.667 659.833 271 659.5C270.333 659.167 270 657.5 270 654.5C270 651.5 270.833 649.5 272.5 648.5C274.167 647.5 285.167 647.167 305.5 647.5ZM437.5 647.5C457.833 647.833 468.333 650 469 654C469.333 656 469.667 658 470 660C458.5 660 447 660 435.5 660C424 660 412.5 660 401 660C401 658.333 401 656.667 401 655C401 651.667 402 649.5 404 648.5C406 647.5 417.167 647.167 437.5 647.5ZM595 647.5C613.667 647.833 623.667 648.167 625 648.5C626.333 648.833 627.167 650.833 627.5 654.5C627.667 656.333 627.833 658.167 628 660C616.667 659.833 605.333 659.667 594 659.5C582.667 659.333 571.333 659.167 560 659C560 657.5 560 656 560 654.5C560 651.5 561.167 649.5 563.5 648.5C565.833 647.5 576.333 647.167 595 647.5ZM728 647.5C747.333 647.833 757.333 649.833 758 653.5C758.333 655.333 758.667 657.167 759 659C747.833 659.167 736.667 659.333 725.5 659.5C714.333 659.667 703.167 659.833 692 660C692 658.167 692 656.333 692 654.5C692 650.833 693.167 648.667 695.5 648C697.833 647.333 708.667 647.167 728 647.5ZM266 673C278.5 673 291 673 303.5 673C316 673 328.5 673 341 673C341 674.333 341 675.667 341 677C341 678.333 341 679.667 341 681C328.5 681.167 316 681.333 303.5 681.5C291 681.667 278.5 681.833 266 682C266 680.5 266 679 266 677.5C266 676 266 674.5 266 673ZM397 673C409.667 673 422.333 673 435 673C447.667 673 460.333 673 473 673C473 674.333 473 675.667 473 677C473 678.333 473 679.667 473 681C460.333 681.167 447.667 681.333 435 681.5C422.333 681.667 409.667 681.833 397 682C397 680.5 397 679 397 677.5C397 676 397 674.5 397 673ZM591.5 673C604.667 673 617.833 673 631 673C631 674.333 631 675.667 631 677C631 678.333 631 679.667 631 681C617.667 681 604.333 681 591 681C577.667 681 564.333 681 551 681C551.167 679.667 551.333 678.333 551.5 677C551.833 674.333 565.167 673 591.5 673ZM687 673C699.333 673 711.667 673 724 673C736.333 673 748.667 673 761 673C761 674.333 761 675.667 761 677C761 678.333 761 679.667 761 681C749.667 681.167 738.333 681.333 727 681.5C704.333 681.833 692 681.833 690 681.5C688 681.167 687 679.667 687 677C687 675.667 687 674.333 687 673ZM240 694C331.333 694 422.667 694 514 694C696.667 694 788.167 694.5 788.5 695.5C788.833 696.5 788.333 697.5 787 698.5C785.667 699.5 784.5 701.167 783.5 703.5C782.5 705.833 776.833 707.167 766.5 707.5C756.167 707.833 667.5 707.833 500.5 707.5C333.5 707.167 248.333 704.833 245 700.5C243.333 698.333 241.667 696.167 240 694ZM528 719.5C663.333 719.833 737.333 720.167 750 720.5C762.667 720.833 769 721.333 769 722C769 722.667 767.333 724.667 764 728C760.667 731.333 687.167 732.833 543.5 732.5C399.833 732.167 318.667 732.333 300 733C281.333 733.667 270.333 732.333 267 729C263.667 725.667 261.833 723.333 261.5 722C261.333 721.333 261.167 720.667 261 720C271.667 719.833 282.333 719.667 293 719.5C314.333 719.167 392.667 719.167 528 719.5ZM498 745C629.333 745 703 745.167 719 745.5C735 745.833 743.333 746.5 744 747.5C744.667 748.5 743 750.667 739 754C735 757.333 719.667 758.667 693 758C666.333 757.333 595.5 757.167 480.5 757.5C365.5 757.833 306.167 758.333 302.5 759C298.833 759.667 296 758.833 294 756.5C292 754.167 289.833 752.5 287.5 751.5C285.167 750.5 283.833 749.5 283.5 748.5C283.333 748 283.167 747.5 283 747C286 746.667 289 746.333 292 746C298 745.333 366.667 745 498 745ZM530 770.5C591.667 770.667 653.333 770.833 715 771C715 771.5 715 772 715 772.5C715 773.5 712.333 775.667 707 779C701.667 782.333 637.167 783.833 513.5 783.5C389.833 783.167 325.5 781.667 320.5 779C315.5 776.333 313 774.333 313 773C313 771.667 318.333 770.833 329 770.5C339.667 770.167 406.667 770.167 530 770.5ZM513 796C620.333 796 674.5 796.333 675.5 797C676 797.333 676.5 797.667 677 798C672.333 800.167 667.667 802.333 663 804.5C653.667 808.833 643.167 810.667 631.5 810C619.833 809.333 578.833 809 508.5 809C438.167 809 399.333 809.333 392 810C384.667 810.667 375.833 808.833 365.5 804.5C360.333 802.333 355.167 800.167 350 798C350.333 797.667 350.667 797.333 351 797C351.667 796.333 405.667 796 513 796ZM413 822C446.833 822.167 480.667 822.333 514.5 822.5C548.333 822.667 582.167 822.833 616 823C607.333 825.167 598.667 827.333 590 829.5C572.667 833.833 552 836.167 528 836.5C504 836.833 485.167 836.5 471.5 835.5C457.833 834.5 444.667 832.333 432 829C419.333 825.667 413 823.667 413 823C413 822.667 413 822.333 413 822Z" fill="#000000" fill-rule="nonzero" opacity="1" stroke="none" vectornator:layerName="Curva 1"/>
</g>
</svg>
