<?xml version="1.0" encoding="UTF-8" standalone="no"?>
<!DOCTYPE svg PUBLIC "-//W3C//DTD SVG 1.1//EN" "http://www.w3.org/Graphics/SVG/1.1/DTD/svg11.dtd">
<!-- Created with Vectornator (http://vectornator.io/) -->
<svg height="100%" stroke-miterlimit="10" style="fill-rule:nonzero;clip-rule:evenodd;stroke-linecap:round;stroke-linejoin:round;" version="1.1" viewBox="0 0 1024 1024" width="100%" xml:space="preserve" xmlns="http://www.w3.org/2000/svg" xmlns:vectornator="http://vectornator.io" xmlns:xlink="http://www.w3.org/1999/xlink">
<defs/>
<g id="Capa-1" vectornator:layerName="Capa 1">
<g opacity="1" vectornator:layerName="Grupo 1">
<path d="M483.002 184.5C480.55 186.952 466.039 178.679 462.502 177.5C449.712 173.237 437.836 173 424.001 173C402.878 173 382.664 181.459 362.501 186.5C347.212 190.322 331.8 191 316.001 191C297.101 191 277.109 181.369 259.5 175.5C256.322 174.441 246.432 172.016 246 178.5C245.178 190.828 252.947 194.947 262 204C270.304 212.303 287.626 224.249 293.501 236C284.048 245.453 270.918 252.65 259.5 259.5C256.458 261.325 247.693 265.534 247 269C244.315 282.427 279.964 289.269 290.001 291.5C310.078 295.962 331.376 296.972 351.501 292.5C375 287.278 398.208 275.917 422.501 275C429.498 274.736 436.5 274.5 443.502 274.5C454.782 274.5 466.874 279.915 476.002 286C477.226 286.816 483.396 289.084 483.502 290C483.941 293.808 483.519 297.667 483.502 301.5C483.352 335.833 483.237 370.167 483.002 404.5C482.656 454.999 482.557 505.502 483.002 556C483.023 558.361 484.133 560.738 483.002 563C482.727 563.551 455.631 567.174 451.502 568C427.773 572.746 395.488 581.408 374.501 594C365.963 599.123 355.821 603.09 347.001 607.5C327.432 617.284 308.639 629.181 289.001 639C282.072 642.464 275.43 646.536 268.5 650C267.453 650.524 263.266 653.828 262.5 653.5C257.07 651.173 245.124 628.539 241.5 622.5C219.434 585.723 207.069 540.764 206 498C205.612 482.485 205.22 469.723 206.5 455C208.089 436.725 211.689 416.934 217.5 399.5C227.397 369.809 238.856 343.716 256 318C259.36 312.96 264.046 308.934 267.5 304C269.332 301.383 254.479 294.69 252 295C250.248 295.219 247.237 302.645 246 304.5C240.405 312.893 235.703 321.328 230.5 330C208.237 367.105 193.582 412.848 190.5 456C189.371 471.81 189 487.647 189 503.5C189 524.331 193.298 545.544 199 565.5C210.737 606.578 233.247 645.633 262 677C342.926 765.282 447.409 802.682 568.502 782.5C726.572 756.155 848.255 615.631 829.004 452C822.362 395.541 799.605 346.141 767.004 300.5C755.79 284.801 743.269 271.266 729.503 257.5C689.502 217.499 633.135 192.926 578.502 182C563.775 179.055 548.89 178.654 534.002 177C531.337 176.704 527.051 175.075 524.502 175.5C523.499 175.667 522.501 187.001 519.502 190C521.392 192.835 530.238 192.674 533.502 193C545.321 194.182 557.279 195.046 569.002 197C605.022 203.003 642.494 216.16 673.003 236.5C699.177 253.949 724.384 273.411 744.503 298C793.883 358.352 819.317 436.146 812.504 514.5C808.108 565.055 785.811 616.591 755.503 657C715.641 637.069 676.879 611.55 635.503 595C622.169 589.666 609.383 582.466 595.503 578.5C574.73 572.565 554.697 567.066 533.002 565C522.435 563.994 511.513 564.502 501.002 563C500.535 562.933 500.033 562.47 500.002 562C499.425 553.351 499.502 544.668 499.502 536C499.502 474.666 500.002 413.334 500.002 352C500.002 321.398 499.502 290.643 499.502 260C499.502 236.411 498.266 211.99 499.502 188.5C499.664 185.431 504.329 184.673 506.502 182.5C508.889 180.113 509.002 172.87 509.002 170.5C509.002 169.497 507.697 166.772 507.002 166C492.948 150.384 466.427 167.925 483.002 184.5Z" fill="#fa653e" fill-rule="nonzero" opacity="1" stroke="none" vectornator:layerName="path"/>
<path d="M615.003 253.5C602.829 257.558 608.368 274.239 608.003 283C607.983 283.471 607.425 283.789 607.003 284C598.18 288.412 586.545 287.093 578.002 293.5C564.121 303.911 543.607 317.58 539.002 336C537.198 343.215 535.606 352.056 533.002 359C531.395 363.285 503.6 354.288 505.502 369.5C506.663 378.785 517.415 377.157 524.002 377C527.006 376.928 532.273 374.585 533.002 377.5C534.282 382.619 534.002 388.249 535.502 393.5C540.116 409.649 552.815 427.375 566.502 436.5C569.923 438.781 574.375 442.968 578.502 444C583.826 445.331 589.015 448.128 594.502 449.5C598.707 450.551 603.452 450.15 607.503 451.5C607.95 451.649 608.478 452.029 608.503 452.5C608.818 458.325 608.35 464.169 608.503 470C608.565 472.371 611.842 474.968 613.003 476C616.21 478.851 624.232 476.629 625.003 472C626.017 465.915 624.976 459.646 625.503 453.5C625.543 453.03 626.043 452.602 626.503 452.5C632.957 451.066 639.547 451.152 646.003 449C666.032 442.324 681.855 425.746 692.503 408C697.974 398.882 698.355 387.227 702.003 377.5C702.169 377.059 702.532 376.528 703.003 376.5C708.327 376.187 713.671 376.63 719.003 376.5C723.139 376.399 726.777 375.316 728.503 371C734.039 357.161 707.328 358.588 702.503 361C700.202 358.699 700.745 352.341 700.003 349C698.383 341.711 695.588 332.114 691.003 326C678.147 308.859 664.332 294.776 644.003 288C638.142 286.046 631.796 286.238 626.003 284.5C625.551 284.365 625.032 283.971 625.003 283.5C624.69 278.343 624.895 273.166 625.003 268C625.107 263.009 626.498 254 615.003 253.5Z" fill="#fa653e" fill-rule="nonzero" opacity="1" stroke="none" vectornator:layerName="path"/>
<path d="M323.501 540.5C321.086 538.326 312.47 532.719 312.001 528.5C310.989 519.396 315.472 510.559 314.001 501C312.42 490.721 304.008 481.007 297.001 474C286.134 463.133 266.158 461.678 252 459.5C245.146 458.445 240.753 456.389 236 462.5C232.519 466.975 235.593 481.908 236 487C237.529 506.116 244.532 519.032 258 532.5C264.591 539.091 278.765 543.5 287.501 543.5C292.905 543.5 298.584 539.225 304.001 540.5C305.809 540.925 322.744 562.46 323.501 567C323.85 569.091 322.498 577.343 326.001 578C330.22 578.791 333.831 578.704 336.501 575.5C339.498 571.903 335.109 565.987 337.501 562C342.308 553.988 351.719 545.782 358.501 539C360.371 537.13 364.632 540.253 366.501 541C370.745 542.698 375.564 542.5 380.001 542.5C397.056 542.5 410.571 527.217 418.501 514C425.217 502.806 432.882 466.833 424.501 459.5C421.124 456.545 409.376 460.375 405.001 461C385.878 463.732 370.409 468.092 356.501 482C348.016 490.485 347.001 508.925 347.001 519.5C347.001 521.761 348.642 528.461 348.001 530C347.447 531.328 340.216 537.499 338.501 539C338.168 538.667 337.51 538.471 337.501 538C337.174 520.003 337.66 501.999 337.501 484C337.437 476.798 354.474 469.609 357.001 459.5C359.458 449.672 363.001 441.247 363.001 430.5C363.001 412.468 349.624 394.623 337.501 382.5C329.63 374.629 321.173 386.785 317.001 392C304.108 408.116 294.732 426.538 299.501 448C301.986 459.184 307.903 466.902 316.001 475C317.774 476.773 322.897 478.292 324.001 480.5C326.685 485.869 324.501 492.498 324.501 498.5C324.501 504.336 324.001 510.164 324.001 516C324.001 523.835 324.661 531.667 324.501 539.5C324.491 539.971 323.834 540.167 323.501 540.5Z" fill="#fa653e" fill-rule="nonzero" opacity="1" stroke="none" vectornator:layerName="path"/>
<path d="M611.503 334C599.437 334.448 587.584 342.673 584.502 355C583.849 357.611 581.364 360.63 582.002 363.5C582.345 365.043 583.677 366.429 583.502 368C583.21 370.624 581.502 372.713 581.502 375.5C581.502 392.913 603.154 403 617.503 403C654.291 403 663.88 364.877 639.503 340.5C632.333 333.33 620.658 333.66 611.503 334Z" fill="#fa653e" fill-rule="nonzero" opacity="1" stroke="none" vectornator:layerName="path"/>
<path d="M713.503 461.5C704.498 463.181 709.858 475.289 706.503 482C705.219 484.568 689.492 482.511 684.003 488C677.773 494.23 687.784 499.071 692.503 499.5C693.958 499.632 701.226 499.373 703.503 501C710.516 506.009 702.857 522.915 717.003 521.5C724.863 520.714 721.844 505.659 726.503 501C732.309 495.194 749.06 506.629 747.503 489.5C746.621 479.802 726.675 485.845 724.503 481.5C720.059 472.612 727.018 458.977 713.503 461.5Z" fill="#fa653e" fill-rule="nonzero" opacity="1" stroke="none" vectornator:layerName="path"/>
<path d="M287.501 328C276.243 328.239 285.461 339.734 280.501 348C278.614 351.145 268.276 349.845 265 350.5C261.663 351.167 257.86 358.42 260.5 361.5C265.359 367.168 271.842 362.92 278.001 366C284.418 369.209 274.575 384.327 290.501 383C296.842 382.472 295.637 370.457 296.501 367C296.955 365.184 308.318 366.476 311.501 364C315.742 360.701 318.364 354.831 313.001 351C308.993 348.137 299.121 352.739 296.501 347.5C291.34 337.179 302.867 327.674 287.501 328Z" fill="#fa653e" fill-rule="nonzero" opacity="1" stroke="none" vectornator:layerName="path"/>
<path d="M608.003 300C587.437 303.027 568.938 316.346 557.502 333.5C553.387 339.673 552.331 346.192 551.002 353.5C550.861 354.275 548.644 360.88 550.502 361C555.325 361.311 560.19 361.451 565.002 361C566.936 360.819 568.653 350.123 569.502 348C572.467 340.587 579.186 332.512 585.502 328C593.528 322.267 600.55 322.259 608.003 318C608.617 317.649 609.43 317.203 609.503 316.5C609.949 312.19 609.363 307.831 609.503 303.5C609.568 301.497 610.69 299.604 608.003 300Z" fill="#fa653e" fill-rule="nonzero" opacity="1" stroke="none" vectornator:layerName="path"/>
<path d="M625.003 435C628.792 433.106 635.928 433.525 640.503 432C656.244 426.753 676.638 412.326 680.003 395.5C680.945 390.791 687.122 378.619 683.503 375C678.859 377.322 673.081 373.461 669.003 375.5C666.32 376.842 666.598 384.264 665.503 387C662.306 394.992 656.502 402.584 650.003 408C645.719 411.57 639.102 416.6 633.503 418C630.94 418.641 627.316 418.612 625.003 420C620.991 422.407 623.67 429.333 624.003 434C624.037 434.47 624.67 434.667 625.003 435Z" fill="#fa653e" fill-rule="nonzero" opacity="1" stroke="none" vectornator:layerName="path"/>
<path d="M783.504 201C773.322 201.543 780.784 214.627 776.004 221C772.375 225.839 764.771 220.276 760.004 223C754.84 225.95 756.857 234.04 762.004 236C765.847 237.464 773.281 233.461 776.004 238C779.281 243.462 774.834 258.459 786.504 257C794.455 256.006 790.663 241.902 793.004 238C795.366 234.063 803.799 238.023 808.004 235.5C812.202 232.981 814.569 224.413 807.504 223C803.69 222.237 795.309 224.342 793.004 220.5C788.078 212.29 795.968 200.335 783.504 201Z" fill="#fa653e" fill-rule="nonzero" opacity="1" stroke="none" vectornator:layerName="path"/>
<path d="M625.503 300.5C619.82 300.247 623.659 311.822 624.003 317.5C624.055 318.364 633.788 319.367 636.003 320C643.287 322.081 650.3 327.797 655.503 333C658.226 335.723 662.52 341.069 663.503 345C664.49 348.949 665.857 357.984 669.003 360.5C672.649 363.417 678.345 361.333 683.003 361C685.703 360.807 683.295 354.315 683.003 353C681.226 345.004 678.629 338.877 674.503 332C662.778 312.459 646.557 301.437 625.503 300.5Z" fill="#fa653e" fill-rule="nonzero" opacity="1" stroke="none" vectornator:layerName="path"/>
<path d="M551.002 375C545.256 377.345 553.481 392.959 556.002 398C564.612 415.219 578.971 426.848 597.003 432C600.125 432.892 605.425 435.616 608.503 435C608.965 434.908 609.472 434.47 609.503 434C609.813 429.344 609.813 424.656 609.503 420C609.387 418.253 601.142 417.91 599.503 417.5C593.856 416.089 587.275 411.203 583.002 407.5C578.378 403.492 572.126 396.996 570.502 390.5C569.868 387.964 568.435 375.351 566.502 375C561.52 374.094 555.758 373.059 551.002 375Z" fill="#fa653e" fill-rule="nonzero" opacity="1" stroke="none" vectornator:layerName="path"/>
<path d="M612.503 351C596.528 354.006 595.75 376.643 606.503 386.5C609.412 389.167 617.624 389 620.503 389C632.393 389 638.634 372.392 635.503 363C631.995 352.477 621.546 349.299 612.503 351Z" fill="#fa653e" fill-rule="nonzero" opacity="1" stroke="none" vectornator:layerName="path"/>
<path d="M242 808C233.402 808.584 232.255 821.824 240 822C246.998 822.159 254.001 822.14 261 822C273.456 821.751 284.287 822 297.001 822C298.015 822 299.017 821.746 300.001 821.5C305.203 820.199 305.761 811.163 301.501 808.5C295.563 804.789 287.503 808 280.501 808C276.086 808 273.029 809.174 268.5 809C259.667 808.66 250.819 807.401 242 808Z" fill="#fa653e" fill-rule="nonzero" opacity="1" stroke="none" vectornator:layerName="path"/>
<path d="M742.503 418.5C739.326 420.449 737.992 432.005 735.503 433C732.422 434.232 725.108 432.587 723.503 437C720.561 445.092 730.471 443.881 734.003 446C739.732 449.437 732.867 463.306 746.503 459C751.878 457.303 749.239 450.527 751.003 447C751.502 446.001 762.22 444.516 765.504 440C770.595 433 753.895 432.022 752.003 429.5C749.854 426.634 751.952 421.587 748.503 419C746.843 417.755 743.918 417.632 742.503 418.5Z" fill="#fa653e" fill-rule="nonzero" opacity="1" stroke="none" vectornator:layerName="path"/>
<path d="M790.504 707.5C785.371 708.995 786.857 712.863 784.504 716C782.703 718.401 770.077 721.763 774.004 727C776.927 730.897 781.381 730.357 784.504 734C787.685 737.711 787.851 743.165 794.504 742.5C800.002 741.95 798.148 736.594 800.004 733.5C801.962 730.236 811.366 732.739 812.004 727C812.994 718.092 804.313 721.079 800.504 716C798.297 713.057 800.015 711.009 796.504 708C795.051 706.755 791.206 707.295 790.504 707.5Z" fill="#fa653e" fill-rule="nonzero" opacity="1" stroke="none" vectornator:layerName="path"/>
<path d="M228 708.5C222.647 708.552 223.738 712.944 222 717C219.649 722.486 210.47 717.199 211.5 727.5C212.107 733.567 219.167 730.889 221.5 734C225.03 738.707 222.182 743.302 231 742.5C236.914 741.962 234.297 735.027 237 733C240.037 730.722 246.858 731.775 247.5 726C248.314 718.67 243.095 720.957 239 718.5C233.567 715.24 238.873 708.394 228 708.5Z" fill="#fa653e" fill-rule="nonzero" opacity="1" stroke="none" vectornator:layerName="path"/>
<path d="M403.001 481C391.562 483.879 384.612 496.381 376.001 504.5C370.952 509.26 363.874 514.882 361.501 522C360.823 524.035 364.687 526.363 366.501 526C367.789 525.742 371.732 521.598 372.501 521C381.156 514.268 389.392 507.509 397.501 500C402.893 495.008 416.67 477.56 403.001 481Z" fill="#fa653e" fill-rule="nonzero" opacity="1" stroke="none" vectornator:layerName="path"/>
<path d="M328.001 413.5C325.073 414.412 326.096 416.897 326.001 420.5C325.707 431.664 325.501 442.832 325.501 454C325.501 456.608 324.952 467.102 327.501 470.5C331.685 476.078 335.725 470.184 336.001 465.5C336.892 450.356 337.001 435.17 337.001 420C337.001 414.268 332.579 412.074 328.001 413.5Z" fill="#fa653e" fill-rule="nonzero" opacity="1" stroke="none" vectornator:layerName="path"/>
<path d="M403.001 366C398.365 367.44 399.871 372.473 396.501 375C393.919 376.937 386.433 374.205 385.001 378.5C382.358 386.43 395.15 385.223 398.001 389.5C399.538 391.806 398.271 393.725 401.001 396C402.443 397.202 406.318 396.695 407.001 396.5C410.519 395.495 408.401 391.601 409.001 389.5C410.193 385.328 417.923 387.339 419.501 383C420.641 379.864 405.53 365.214 403.001 366Z" fill="#fa653e" fill-rule="nonzero" opacity="1" stroke="none" vectornator:layerName="path"/>
<path d="M260.5 483C255.742 484.103 262.477 492.965 264.5 496C268.475 501.963 286.204 523.617 294.501 525C306.22 526.953 298.886 514.885 295.001 511C292.389 508.388 289.141 506.975 286.501 504.5C281.771 500.066 277.235 495.429 272.501 491C269.477 488.172 264.448 482.085 260.5 483Z" fill="#fa653e" fill-rule="nonzero" opacity="1" stroke="none" vectornator:layerName="path"/>
<path d="M822.004 283.5C818.213 286.198 819.381 289.499 815.004 293C813.515 294.192 808.86 292.36 808.004 295.5C806.087 302.529 810.911 299.68 814.004 302C817.299 304.472 820.083 315.441 826.004 311C828.732 308.954 828.616 303.738 831.504 302.5C833.415 301.681 838.641 302.663 839.504 299.5C841.619 291.747 833.203 292.699 829.504 289C827.973 287.469 828.411 284.503 826.004 283.5C824.773 282.987 823.09 282.727 822.004 283.5Z" fill="#fa653e" fill-rule="nonzero" opacity="1" stroke="none" vectornator:layerName="path"/>
<path d="M242.5 775.5C240.143 775.507 237.311 774.991 235.5 776.5C231.655 779.704 231.496 788.86 238.5 789C246.498 789.16 254.501 789.145 262.5 789C269.464 788.873 270.432 785.515 269 778C268.824 777.074 267.819 776.468 267 776C266.566 775.752 266 776.01 265.5 776C257.833 775.844 250.168 775.478 242.5 775.5Z" fill="#fa653e" fill-rule="nonzero" opacity="1" stroke="none" vectornator:layerName="path"/>
<path d="M284.501 775C277.984 775.339 273.852 778.302 275.501 786C275.699 786.922 276.717 787.477 277.501 788C283.886 792.257 292.827 789 300.501 789C307.71 789 305.971 778.391 302.501 775.5C297.89 771.657 290.495 774.689 284.501 775Z" fill="#fa653e" fill-rule="nonzero" opacity="1" stroke="none" vectornator:layerName="path"/>
<path d="M330.501 774.5C327.979 774.511 324.992 773.952 323.001 775.5C317.484 779.791 318.427 783.426 323.001 788C323.426 788.425 323.901 788.966 324.501 789C329.826 789.304 335.17 789.152 340.501 789C347.784 788.792 348.207 778.53 343.501 775C340.032 772.398 334.837 774.482 330.501 774.5Z" fill="#fa653e" fill-rule="nonzero" opacity="1" stroke="none" vectornator:layerName="path"/>
<path d="M330.501 808C323.436 808.179 322.476 807.465 318.001 812.5C315.82 814.954 319.683 821.909 322.501 822C326.257 822.121 336.023 822.496 341.501 821.5C347.88 820.34 346.499 811.915 343.001 809C339.79 806.324 334.68 807.894 330.501 808Z" fill="#fa653e" fill-rule="nonzero" opacity="1" stroke="none" vectornator:layerName="path"/>
<path d="M507.002 806.5C506.912 806.482 497.373 806.024 495.002 808C491.133 811.224 490.021 818.88 496.502 820.5C502.163 821.915 508.166 821 514.002 821C518.433 821 518.617 812.73 517.502 810.5C515.168 805.832 511.364 807.35 507.002 806.5Z" fill="#fa653e" fill-rule="nonzero" opacity="1" stroke="none" vectornator:layerName="path"/>
<path d="M674.503 536.5C670.648 537.972 668.421 542.082 665.503 545C659.683 550.82 669.49 559.252 675.503 558.5C677.026 558.31 682.963 552.04 683.003 552C687.651 547.352 678.914 534.815 674.503 536.5Z" fill="#fa653e" fill-rule="nonzero" opacity="1" stroke="none" vectornator:layerName="path"/>
<path d="M582.002 806C572.555 806.554 570.26 813.982 577.502 820.5C580.478 823.178 585.501 821.154 589.502 821C594.127 820.822 598.824 812.986 595.503 809C592.017 804.818 587.46 805.68 582.002 806Z" fill="#fa653e" fill-rule="nonzero" opacity="1" stroke="none" vectornator:layerName="path"/>
<path d="M436.002 806.5C419.005 808.642 430.084 821.5 442.002 821.5C450.432 821.5 454.076 813.344 447.502 807.5C444.626 804.944 439.82 806.019 436.002 806.5Z" fill="#fa653e" fill-rule="nonzero" opacity="1" stroke="none" vectornator:layerName="path"/>
<path d="M366.001 807.5C357.844 808.69 357.639 815.638 363.001 821C365.253 823.252 369.317 822 372.501 822C380.595 822 383.995 814.494 378.501 809C375.534 806.033 370.154 806.894 366.001 807.5Z" fill="#fa653e" fill-rule="nonzero" opacity="1" stroke="none" vectornator:layerName="path"/>
<path d="M403.501 806.5C384.805 808.56 391.529 821.5 407.501 821.5C416.535 821.5 413.993 810.993 410.001 807.5C408.891 806.529 404.598 806.379 403.501 806.5Z" fill="#fa653e" fill-rule="nonzero" opacity="1" stroke="none" vectornator:layerName="path"/>
<path d="M544.502 806.5C538.014 807.143 534.302 815.813 541.002 820C544.538 822.21 549.332 820.5 553.502 820.5C557.939 820.5 561.358 813.427 558.502 810C554.666 805.397 550.655 805.89 544.502 806.5Z" fill="#fa653e" fill-rule="nonzero" opacity="1" stroke="none" vectornator:layerName="path"/>
<path d="M499.002 605C494.802 605.297 492.798 607.32 488.002 607C487.129 606.942 485.368 605.227 484.002 605.5C479.885 606.323 486.106 614.104 487.002 615C488.823 616.821 496.094 616.5 497.502 616.5C505.05 616.5 509.353 604.269 499.002 605Z" fill="#fa653e" fill-rule="nonzero" opacity="1" stroke="none" vectornator:layerName="path"/>
<path d="M618.003 806C609.151 808.077 611.805 820.5 621.003 820.5C628.129 820.5 631.302 811.416 626.003 807C623.938 805.28 620.619 805.386 618.003 806Z" fill="#fa653e" fill-rule="nonzero" opacity="1" stroke="none" vectornator:layerName="path"/>
<path d="M471.002 807C464.344 807.167 464.387 818.577 471.502 820C482.952 822.29 486.635 806.607 471.002 807Z" fill="#fa653e" fill-rule="nonzero" opacity="1" stroke="none" vectornator:layerName="path"/>
<path d="M277.501 787C275.321 784.82 276.206 780.59 277.501 778C275.484 775.983 271.834 776.667 269 777C263.303 777.67 269.586 794.914 277.501 787Z" fill="#fa653e" fill-rule="nonzero" opacity="1" stroke="none" vectornator:layerName="path"/>
</g>
</g>
</svg>
